<?xml version="1.0" encoding="UTF-8"?>
<svg xmlns="http://www.w3.org/2000/svg" xmlns:xlink="http://www.w3.org/1999/xlink" width="px" height="0px" viewBox="0 0 234 74" version="1.1">
<defs>
<clipPath id="clip1">
  <path d="M 224 23 L 233.960938 23 L 233.960938 35 L 224 35 Z M 224 23 "/>
</clipPath>
</defs>
<g id="surface1">
<path style=" stroke:none;fill-rule:nonzero;fill:rgb(0%,0%,0%);fill-opacity:1;" d="M 14.75 56.585938 C 13.171875 54.894531 12.003906 53.210938 10.605469 51.710938 C 8.90625 49.875 7.285156 47.933594 5.496094 46.21875 C 5.082031 45.847656 4.757812 45.386719 4.542969 44.871094 C 4.328125 44.355469 4.230469 43.800781 4.257812 43.246094 C 4.347656 38.570312 4.257812 33.898438 4.257812 29.230469 C 4.273438 28.234375 4.132812 27.242188 3.84375 26.292969 C 3.65625 25.589844 3.25 24.96875 2.6875 24.511719 C 2.121094 24.054688 1.425781 23.789062 0.703125 23.753906 C 0.113281 23.703125 -0.015625 23.558594 -0.0507812 23 C -0.0507812 22.246094 0.414062 22.464844 0.777344 22.464844 C 9.148438 22.464844 17.511719 22.464844 25.882812 22.464844 C 26.910156 22.464844 27.089844 22.167969 27.082031 21.21875 C 27.03125 16 27.082031 10.773438 27.023438 5.558594 C 27.023438 3.011719 25.515625 1.367188 23.429688 1.464844 C 22.804688 1.464844 22.945312 1.050781 22.925781 0.710938 C 22.902344 0.371094 22.855469 -0.046875 23.40625 0.03125 C 23.613281 0.03125 23.816406 0.03125 24.027344 0.03125 C 35.304688 0.03125 46.589844 0.03125 57.867188 0.03125 C 58.921875 0.03125 59.082031 0.4375 59.140625 1.328125 C 59.253906 2.839844 59.511719 4.347656 59.691406 5.859375 C 59.730469 6.191406 59.964844 6.683594 59.488281 6.8125 C 59.375 6.863281 59.25 6.886719 59.125 6.886719 C 58.996094 6.882812 58.875 6.851562 58.761719 6.796875 C 58.648438 6.742188 58.546875 6.664062 58.46875 6.5625 C 58.390625 6.464844 58.332031 6.351562 58.304688 6.230469 C 56.726562 2.363281 53.773438 0.4375 49.609375 0.445312 L 39.117188 0.445312 C 37.6875 0.445312 37.6875 0.445312 37.6875 1.820312 C 37.6875 12.390625 37.6875 22.9375 37.6875 33.457031 L 37.6875 34.046875 C 36.898438 33.761719 36.65625 33.050781 36.246094 32.539062 C 33.574219 29.320312 30.683594 26.308594 27.839844 23.242188 C 27.714844 23.105469 27.5625 23 27.390625 22.929688 C 27.21875 22.863281 27.035156 22.835938 26.851562 22.847656 C 23.039062 22.847656 19.234375 22.847656 15.429688 22.847656 C 14.824219 22.847656 14.675781 23.046875 14.675781 23.605469 C 14.675781 31.15625 14.675781 38.707031 14.675781 46.257812 C 14.675781 46.882812 14.902344 46.976562 15.429688 46.976562 C 18.246094 46.976562 21.058594 46.976562 23.867188 46.976562 C 26.675781 46.976562 29.410156 44.671875 30.300781 41.90625 C 30.351562 41.574219 30.449219 41.246094 30.59375 40.941406 C 30.773438 40.667969 31.167969 40.78125 31.460938 40.8125 C 31.96875 40.859375 31.765625 41.28125 31.765625 41.570312 C 31.765625 45.414062 31.765625 49.261719 31.765625 53.105469 C 31.765625 53.410156 31.921875 53.863281 31.332031 53.863281 C 30.902344 53.863281 30.640625 53.863281 30.480469 53.273438 C 30.167969 51.9375 29.484375 50.714844 28.515625 49.746094 C 27.542969 48.777344 26.320312 48.101562 24.984375 47.789062 C 24.351562 47.652344 23.703125 47.589844 23.054688 47.609375 C 20.585938 47.609375 18.117188 47.609375 15.648438 47.570312 C 14.773438 47.570312 14.644531 47.894531 14.652344 48.636719 C 14.773438 51.171875 14.75 53.75 14.75 56.585938 Z M 14.75 56.585938 "/>
<path style=" stroke:none;fill-rule:nonzero;fill:rgb(0%,0%,0%);fill-opacity:1;" d="M 52.175781 31.34375 C 52.175781 28.558594 50.5 26.8125 47.230469 26.210938 C 47.207031 26.191406 47.175781 26.179688 47.148438 26.179688 C 47.117188 26.179688 47.085938 26.191406 47.0625 26.210938 L 46.996094 25.800781 L 47.070312 25.800781 L 47.230469 25.621094 C 47.644531 25.574219 47.984375 25.296875 48.460938 25.394531 C 48.589844 25.53125 48.632812 25.460938 48.648438 25.324219 C 49.058594 25.03125 49.601562 24.972656 49.941406 24.570312 C 50.585938 24.191406 51.128906 23.65625 51.523438 23.019531 C 51.917969 22.382812 52.152344 21.65625 52.203125 20.910156 C 52.203125 20.628906 52.128906 20.257812 52.613281 20.222656 C 53.09375 20.183594 52.996094 20.539062 53.042969 20.824219 C 53.183594 21.933594 53.671875 22.972656 54.4375 23.785156 C 55.203125 24.597656 56.207031 25.148438 57.308594 25.355469 C 57.503906 25.402344 57.691406 25.492188 57.894531 25.53125 C 58.101562 25.566406 58.328125 25.53125 58.347656 25.808594 C 58.371094 26.089844 58.101562 26.125 57.867188 26.1875 C 57.414062 26.300781 56.96875 26.457031 56.523438 26.601562 C 55.679688 26.839844 54.921875 27.3125 54.339844 27.96875 C 53.757812 28.621094 53.375 29.429688 53.238281 30.292969 C 52.847656 30.640625 53.140625 31.117188 53.011719 31.511719 C 52.703125 31.546875 52.394531 31.644531 52.175781 31.34375 Z M 49.488281 26.316406 C 49.660156 26.277344 49.683594 26.148438 49.660156 26.003906 C 49.65625 25.921875 49.621094 25.839844 49.5625 25.773438 C 49.507812 25.710938 49.429688 25.671875 49.34375 25.660156 C 49.109375 25.660156 49.078125 25.839844 49.132812 26.011719 C 49.140625 26.101562 49.183594 26.179688 49.25 26.238281 C 49.3125 26.296875 49.398438 26.332031 49.488281 26.332031 Z M 49.488281 26.316406 "/>
<path style=" stroke:none;fill-rule:nonzero;fill:rgb(0%,0%,0%);fill-opacity:1;" d="M 25.589844 73.628906 C 27.183594 73.433594 28.609375 73.628906 29.953125 73.351562 C 33.0625 72.6875 35.824219 71.515625 37.328125 68.472656 C 37.695312 67.71875 38.21875 68.066406 38.796875 68.003906 C 38.457031 69.882812 38.121094 71.683594 37.816406 73.480469 C 37.765625 73.796875 37.71875 73.976562 37.339844 73.976562 L 26.019531 73.933594 C 25.972656 73.953125 25.875 73.847656 25.589844 73.628906 Z M 25.589844 73.628906 "/>
<path style=" stroke:none;fill-rule:nonzero;fill:rgb(0%,0%,0%);fill-opacity:1;" d="M 210.425781 25.960938 C 210.425781 28.820312 210.425781 31.207031 210.425781 33.59375 C 210.425781 34.109375 210.675781 34.773438 209.671875 34.757812 C 208.667969 34.742188 208.847656 34.199219 208.847656 33.617188 C 208.847656 30.527344 208.847656 27.441406 208.847656 24.351562 C 208.847656 23.914062 208.5 23.234375 209.363281 23.128906 C 209.660156 23.039062 209.976562 23.054688 210.265625 23.167969 C 210.550781 23.277344 210.796875 23.484375 210.953125 23.746094 C 212.585938 26.230469 214.292969 28.664062 215.96875 31.117188 L 216.660156 32.136719 C 216.660156 29.253906 216.660156 26.851562 216.660156 24.421875 C 216.660156 23.875 216.335938 23.097656 217.417969 23.074219 C 218.496094 23.054688 218.230469 23.761719 218.230469 24.34375 C 218.230469 27.363281 218.230469 30.386719 218.230469 33.449219 C 218.230469 33.890625 218.585938 34.589844 217.757812 34.710938 C 217.402344 34.808594 217.027344 34.789062 216.683594 34.652344 C 216.34375 34.515625 216.058594 34.273438 215.867188 33.957031 C 214.359375 31.640625 212.804688 29.375 211.265625 27.085938 C 211.113281 26.859375 210.910156 26.617188 210.425781 25.960938 Z M 210.425781 25.960938 "/>
<path style=" stroke:none;fill-rule:nonzero;fill:rgb(0%,0%,0%);fill-opacity:1;" d="M 145.992188 50.265625 L 145.992188 45.402344 C 145.992188 44.9375 145.925781 44.414062 146.640625 44.421875 C 148.097656 44.363281 149.558594 44.390625 151.011719 44.5 C 151.675781 44.539062 152.308594 44.789062 152.8125 45.214844 C 153.320312 45.644531 153.675781 46.222656 153.828125 46.871094 C 154.167969 48.453125 153.828125 49.996094 152.320312 50.820312 C 151.308594 51.371094 151.5625 51.800781 152.054688 52.433594 C 152.652344 53.1875 153.285156 53.988281 153.8125 54.820312 C 154.023438 55.167969 154.992188 55.523438 154.207031 55.984375 C 153.910156 56.160156 153.5625 56.21875 153.226562 56.148438 C 152.890625 56.082031 152.589844 55.890625 152.386719 55.613281 C 151.578125 54.464844 150.660156 53.402344 149.917969 52.214844 C 149.753906 51.890625 149.480469 51.632812 149.140625 51.496094 C 148.804688 51.355469 148.429688 51.34375 148.085938 51.460938 C 147.214844 51.65625 147.667969 52.398438 147.625 52.894531 C 147.566406 53.675781 147.566406 54.457031 147.625 55.234375 C 147.625 55.832031 147.472656 56.066406 146.867188 56.066406 C 146.265625 56.066406 146.015625 55.898438 146.023438 55.273438 C 145.992188 53.605469 145.992188 51.9375 145.992188 50.265625 Z M 147.59375 48 C 147.644531 49 147.09375 50.265625 149.035156 50.132812 C 150.976562 49.996094 152.222656 49.375 152.265625 47.980469 C 152.3125 46.582031 151.292969 45.976562 149.109375 45.789062 C 147.058594 45.609375 147.660156 46.976562 147.585938 47.996094 Z M 147.59375 48 "/>
<path style=" stroke:none;fill-rule:nonzero;fill:rgb(0%,0%,0%);fill-opacity:1;" d="M 48.769531 51.347656 C 50.390625 51.40625 52.015625 51.261719 53.601562 50.917969 C 56.445312 50.222656 58.953125 49 60.296875 46.183594 C 60.574219 45.609375 61.050781 45.714844 61.398438 45.789062 C 61.746094 45.863281 61.664062 46.371094 61.617188 46.644531 C 61.382812 48.152344 61.082031 49.707031 60.816406 51.234375 C 60.765625 51.519531 60.71875 51.761719 60.339844 51.753906 L 49.164062 51.753906 C 48.964844 51.730469 48.84375 51.625 48.769531 51.347656 Z M 48.769531 51.347656 "/>
<path style=" stroke:none;fill-rule:nonzero;fill:rgb(0%,0%,0%);fill-opacity:1;" d="M 136.179688 34.574219 C 134.8125 34.96875 134.050781 34.574219 133.457031 33.59375 C 132.859375 32.613281 132.210938 31.925781 131.636719 31.050781 C 131.449219 30.734375 131.152344 30.496094 130.804688 30.375 C 130.457031 30.253906 130.078125 30.261719 129.734375 30.394531 C 128.875 30.605469 129.339844 31.34375 129.289062 31.84375 C 129.234375 32.574219 129.234375 33.308594 129.289062 34.039062 C 129.289062 34.628906 129.007812 34.734375 128.535156 34.734375 C 128.058594 34.734375 127.695312 34.660156 127.695312 34.070312 C 127.695312 30.621094 127.695312 27.167969 127.695312 23.710938 C 127.695312 23.074219 128.132812 23.089844 128.550781 23.097656 C 129.953125 23.023438 131.363281 23.085938 132.753906 23.289062 C 134.15625 23.589844 135.238281 24.238281 135.523438 25.679688 C 135.8125 27.125 135.523438 28.65625 134.050781 29.496094 C 133.167969 30 132.980469 30.371094 133.726562 31.207031 C 134.601562 32.289062 135.417969 33.414062 136.179688 34.574219 Z M 129.265625 26.691406 C 129.484375 27.449219 128.578125 28.875 130.503906 28.816406 C 132.769531 28.738281 133.976562 28.058594 133.914062 26.550781 C 133.855469 25.039062 132.996094 24.753906 130.933594 24.59375 C 129.167969 24.472656 129.0625 25.378906 129.242188 26.691406 Z M 129.265625 26.691406 "/>
<path style=" stroke:none;fill-rule:nonzero;fill:rgb(0%,0%,0%);fill-opacity:1;" d="M 84.140625 28.828125 C 84.140625 27.257812 84.140625 25.6875 84.140625 24.125 C 84.140625 23.308594 84.382812 23.03125 85.222656 23.0625 C 86.941406 23.121094 88.664062 23.0625 90.382812 23.0625 C 91.042969 23.0625 91.5 23.136719 91.472656 23.972656 C 91.441406 24.8125 90.914062 24.730469 90.382812 24.730469 C 89.5 24.730469 88.609375 24.691406 87.726562 24.730469 C 87.144531 24.730469 86.253906 24.398438 86.050781 25.0625 C 85.875 25.925781 85.859375 26.820312 86.007812 27.691406 C 86.042969 28.1875 86.558594 28.050781 86.898438 28.066406 C 87.886719 28.066406 88.875 28.066406 89.863281 28.066406 C 90.257812 28.066406 90.785156 27.902344 90.792969 28.558594 C 90.800781 29.214844 90.566406 29.570312 89.871094 29.5625 C 88.933594 29.5625 87.992188 29.5625 87.054688 29.5625 C 86.300781 29.5625 85.953125 29.742188 85.90625 30.605469 C 85.773438 33.359375 85.734375 33.351562 88.480469 33.324219 L 90.828125 33.324219 C 91.261719 33.324219 91.515625 33.488281 91.539062 33.957031 C 91.5625 34.425781 91.375 34.757812 90.835938 34.757812 C 88.851562 34.757812 86.875 34.757812 84.890625 34.757812 C 84.074219 34.757812 84.132812 34.214844 84.132812 33.683594 L 84.132812 28.828125 Z M 84.140625 28.828125 "/>
<path style=" stroke:none;fill-rule:nonzero;fill:rgb(0%,0%,0%);fill-opacity:1;" d="M 113.617188 28.816406 C 113.617188 27.242188 113.617188 25.671875 113.617188 24.109375 C 113.617188 23.4375 113.695312 23.023438 114.539062 23.046875 C 116.367188 23.105469 118.191406 23.089844 120.019531 23.046875 C 120.570312 23.046875 120.917969 23.121094 120.917969 23.800781 C 120.917969 24.480469 120.660156 24.730469 119.980469 24.691406 C 119.300781 24.652344 118.417969 24.691406 117.632812 24.691406 C 115.195312 24.691406 115.234375 24.691406 115.371094 27.078125 C 115.371094 27.832031 115.671875 28.082031 116.386719 28.058594 C 117.378906 28.058594 118.375 28.058594 119.363281 28.058594 C 119.769531 28.058594 120.292969 27.960938 120.296875 28.574219 C 120.304688 29.183594 120.058594 29.585938 119.371094 29.578125 C 118.425781 29.578125 117.484375 29.621094 116.546875 29.578125 C 115.609375 29.53125 115.308594 29.878906 115.382812 30.753906 C 115.421875 31.226562 115.421875 31.699219 115.382812 32.167969 C 115.300781 33.027344 115.617188 33.398438 116.523438 33.351562 C 117.664062 33.292969 118.789062 33.351562 119.964844 33.351562 C 120.503906 33.351562 121.046875 33.316406 121.015625 34.109375 C 120.984375 34.902344 120.511719 34.75 120.027344 34.75 C 118.253906 34.75 116.472656 34.703125 114.699219 34.75 C 113.84375 34.75 113.609375 34.457031 113.632812 33.664062 C 113.648438 32.097656 113.617188 30.4375 113.617188 28.816406 Z M 113.617188 28.816406 "/>
<path style=" stroke:none;fill-rule:nonzero;fill:rgb(0%,0%,0%);fill-opacity:1;" d="M 165.273438 28.792969 C 165.273438 27.222656 165.273438 25.652344 165.273438 24.085938 C 165.273438 23.332031 165.46875 23.054688 166.230469 23.070312 C 168.058594 23.070312 169.882812 23.113281 171.710938 23.070312 C 172.308594 23.070312 172.542969 23.203125 172.554688 23.824219 C 172.570312 24.441406 172.34375 24.746094 171.65625 24.707031 C 170.511719 24.652344 169.394531 24.707031 168.207031 24.667969 C 166.601562 24.617188 167.273438 25.824219 167.195312 26.550781 C 167.121094 27.273438 166.894531 28.203125 168.238281 28.058594 C 169.113281 27.976562 170.011719 28.058594 170.894531 28.058594 C 171.445312 28.058594 171.960938 27.992188 171.9375 28.816406 C 171.914062 29.636719 171.410156 29.570312 170.859375 29.570312 C 170.433594 29.570312 170.019531 29.570312 169.605469 29.570312 C 167.167969 29.570312 166.585938 30.324219 167.167969 32.742188 C 167.324219 33.429688 167.769531 33.335938 168.222656 33.335938 L 171.824219 33.335938 C 172.328125 33.335938 172.765625 33.375 172.78125 34.09375 C 172.796875 34.808594 172.300781 34.78125 171.824219 34.78125 C 169.996094 34.78125 168.164062 34.734375 166.34375 34.78125 C 165.5 34.78125 165.257812 34.484375 165.273438 33.683594 C 165.300781 32.03125 165.273438 30.414062 165.273438 28.792969 Z M 165.273438 28.792969 "/>
<path style=" stroke:none;fill-rule:nonzero;fill:rgb(0%,0%,0%);fill-opacity:1;" d="M 100.90625 48.792969 C 100.90625 47.648438 100.90625 46.492188 100.90625 45.34375 C 100.90625 44.710938 101.050781 44.378906 101.765625 44.378906 C 102.484375 44.378906 102.589844 44.800781 102.582031 45.390625 C 102.582031 47.429688 102.53125 49.472656 102.582031 51.511719 C 102.65625 54.066406 104.710938 55.410156 107 54.480469 C 108.304688 53.953125 108.710938 52.894531 108.726562 51.605469 C 108.726562 49.617188 108.726562 47.632812 108.726562 45.636719 C 108.726562 45.019531 108.597656 44.355469 109.617188 44.378906 C 110.636719 44.398438 110.425781 45.132812 110.425781 45.699219 C 110.425781 47.84375 110.464844 49.996094 110.425781 52.140625 C 110.328125 54.730469 108.425781 56.253906 105.488281 56.210938 C 102.726562 56.164062 100.960938 54.527344 100.914062 51.9375 C 100.914062 50.894531 100.914062 49.84375 100.914062 48.792969 Z M 100.90625 48.792969 "/>
<path style=" stroke:none;fill-rule:nonzero;fill:rgb(0%,0%,0%);fill-opacity:1;" d="M 120.796875 56.1875 C 119.523438 56.261719 118.257812 55.964844 117.152344 55.328125 C 116.828125 55.113281 116.296875 54.949219 116.78125 54.414062 C 117.058594 54.109375 117.195312 53.582031 117.875 53.996094 C 118.808594 54.585938 119.910156 54.847656 121.007812 54.753906 C 121.953125 54.648438 122.871094 54.433594 123.089844 53.242188 C 123.308594 52.050781 122.625 51.527344 121.679688 51.144531 C 120.617188 50.710938 119.542969 50.296875 118.503906 49.828125 C 117.996094 49.601562 117.578125 49.222656 117.304688 48.738281 C 117.035156 48.253906 116.921875 47.699219 116.992188 47.148438 C 116.996094 46.59375 117.167969 46.058594 117.488281 45.605469 C 117.804688 45.152344 118.253906 44.808594 118.773438 44.617188 C 119.597656 44.289062 120.480469 44.144531 121.363281 44.183594 C 122.246094 44.226562 123.113281 44.457031 123.898438 44.859375 C 124.277344 45.035156 124.859375 45.179688 124.503906 45.878906 C 124.148438 46.582031 123.898438 46.636719 123.289062 46.226562 C 122.421875 45.714844 121.398438 45.535156 120.410156 45.722656 C 119.710938 45.8125 118.902344 45.949219 118.773438 46.871094 C 118.714844 47.238281 118.789062 47.613281 118.984375 47.933594 C 119.179688 48.25 119.484375 48.488281 119.839844 48.597656 C 120.964844 49.132812 122.199219 49.464844 123.289062 50.0625 C 123.773438 50.296875 124.191406 50.65625 124.496094 51.097656 C 124.804688 51.542969 124.988281 52.058594 125.035156 52.597656 C 125.082031 53.136719 124.988281 53.675781 124.761719 54.167969 C 124.535156 54.65625 124.1875 55.078125 123.75 55.394531 C 122.78125 56.164062 121.679688 56.097656 120.796875 56.1875 Z M 120.796875 56.1875 "/>
<path style=" stroke:none;fill-rule:nonzero;fill:rgb(0%,0%,0%);fill-opacity:1;" d="M 90.136719 44.421875 C 90.851562 44.277344 91.246094 44.550781 91.507812 45.292969 C 92.6875 48.523438 93.925781 51.738281 95.148438 54.957031 C 95.285156 55.328125 95.660156 55.757812 95.070312 56.007812 C 94.859375 56.105469 94.621094 56.144531 94.386719 56.113281 C 94.152344 56.082031 93.929688 55.984375 93.75 55.832031 C 93.613281 55.675781 93.507812 55.492188 93.441406 55.296875 C 92.996094 54.441406 93.125 53.03125 92.164062 52.757812 C 90.886719 52.496094 89.574219 52.46875 88.285156 52.675781 C 87.070312 52.796875 87.34375 54.101562 86.925781 54.867188 C 86.601562 55.441406 86.578125 56.195312 85.613281 56.105469 C 85.039062 56.050781 84.722656 55.984375 84.988281 55.273438 C 86.28125 51.910156 87.539062 48.542969 88.761719 45.171875 C 88.796875 45.027344 88.859375 44.894531 88.949219 44.777344 C 89.039062 44.660156 89.152344 44.5625 89.28125 44.492188 C 89.414062 44.421875 89.554688 44.378906 89.703125 44.367188 C 89.847656 44.355469 89.996094 44.375 90.136719 44.421875 Z M 90.257812 46.515625 L 89.894531 46.515625 C 89.421875 47.828125 88.945312 49.148438 88.476562 50.472656 C 88.300781 50.953125 88.210938 51.382812 89.003906 51.332031 C 89.796875 51.277344 90.460938 51.332031 91.191406 51.332031 C 91.75 51.332031 91.945312 51.097656 91.757812 50.578125 Z M 90.257812 46.515625 "/>
<path style=" stroke:none;fill-rule:nonzero;fill:rgb(0%,0%,0%);fill-opacity:1;" d="M 194.726562 28.820312 C 194.726562 27.257812 194.726562 25.6875 194.726562 24.117188 C 194.726562 23.453125 194.792969 23.054688 195.625 23.074219 C 197.449219 23.121094 199.277344 23.074219 201.105469 23.074219 C 201.640625 23.074219 202.003906 23.121094 201.996094 23.832031 C 201.988281 24.539062 201.804688 24.765625 201.097656 24.730469 C 199.894531 24.675781 198.695312 24.730469 197.496094 24.730469 C 196.742188 24.730469 196.386719 24.835938 196.371094 25.742188 C 196.320312 28.105469 196.265625 28.105469 198.636719 28.121094 C 199.210938 28.121094 199.789062 28.121094 200.355469 28.121094 C 200.773438 28.121094 201.382812 27.917969 201.339844 28.722656 C 201.292969 29.386719 200.921875 29.613281 200.296875 29.601562 C 199.414062 29.601562 198.523438 29.636719 197.640625 29.601562 C 196.757812 29.5625 196.378906 29.863281 196.378906 30.847656 C 196.378906 33.398438 196.320312 33.398438 198.792969 33.398438 C 199.632812 33.398438 200.460938 33.4375 201.300781 33.398438 C 201.882812 33.398438 202.003906 33.640625 202.054688 34.152344 C 202.109375 34.667969 201.804688 34.839844 201.300781 34.832031 C 199.429688 34.832031 197.550781 34.832031 195.667969 34.832031 C 194.988281 34.832031 194.761719 34.589844 194.777344 33.917969 C 194.757812 32.167969 194.726562 30.5 194.726562 28.820312 Z M 194.726562 28.820312 "/>
<path style=" stroke:none;fill-rule:nonzero;fill:rgb(0%,0%,0%);fill-opacity:1;" d="M 202.945312 44.421875 C 203.65625 44.242188 204.003906 44.566406 204.238281 45.179688 C 205.421875 48.378906 206.644531 51.574219 207.84375 54.773438 C 208.011719 55.214844 208.539062 55.785156 207.714844 56.027344 C 207.136719 56.210938 206.371094 56.15625 206.257812 55.320312 C 205.933594 52.863281 204.472656 52.390625 202.242188 52.554688 C 200.90625 52.660156 200.167969 52.894531 199.835938 54.292969 C 199.683594 54.941406 199.746094 56.074219 198.484375 56.035156 C 197.917969 56.035156 197.527344 55.953125 197.789062 55.28125 C 199.097656 51.84375 200.425781 48.417969 201.691406 44.964844 C 201.964844 44.21875 202.5 44.5 202.945312 44.421875 Z M 202.886719 46.128906 C 202.492188 47.125 202.128906 47.933594 201.867188 48.773438 C 200.886719 51.792969 200.402344 51.265625 203.761719 51.347656 C 204.597656 51.347656 204.765625 51.097656 204.457031 50.328125 C 203.925781 49.027344 203.464844 47.707031 202.886719 46.128906 Z M 202.886719 46.128906 "/>
<path style=" stroke:none;fill-rule:nonzero;fill:rgb(0%,0%,0%);fill-opacity:1;" d="M 169.308594 56.035156 C 168.253906 56.285156 168.230469 55.371094 167.9375 54.746094 C 167.640625 54.117188 167.71875 52.84375 166.8125 52.714844 C 165.414062 52.550781 164 52.574219 162.605469 52.78125 C 162.078125 52.847656 162.085938 53.742188 161.851562 54.246094 C 161.617188 54.753906 161.550781 55.25 161.308594 55.710938 C 160.992188 56.316406 160.359375 56.125 159.914062 56.011719 C 159.210938 55.824219 159.738281 55.296875 159.84375 55.007812 C 161.007812 51.835938 162.246094 48.695312 163.398438 45.523438 C 163.65625 44.769531 163.929688 44.398438 164.796875 44.390625 C 165.125 44.347656 165.453125 44.429688 165.722656 44.621094 C 165.992188 44.808594 166.179688 45.097656 166.246094 45.417969 C 167.40625 48.644531 168.632812 51.84375 169.855469 55.046875 C 170.085938 55.628906 170.441406 56.1875 169.308594 56.035156 Z M 164.78125 46.03125 C 164.140625 47.804688 163.671875 49.195312 163.136719 50.5625 C 162.855469 51.316406 163.265625 51.414062 163.777344 51.316406 C 164.722656 51.179688 165.761719 51.769531 166.601562 50.945312 C 166.601562 50.945312 166.53125 50.765625 166.496094 50.667969 Z M 164.78125 46.03125 "/>
<path style=" stroke:none;fill-rule:nonzero;fill:rgb(0%,0%,0%);fill-opacity:1;" d="M 102.558594 32.476562 L 105.375 24.570312 C 105.492188 24.167969 105.652344 23.78125 105.84375 23.40625 C 106.191406 22.828125 106.808594 23.03125 107.246094 23.167969 C 107.683594 23.300781 107.421875 23.800781 107.308594 24.101562 C 106.109375 27.386719 104.863281 30.648438 103.683594 33.917969 C 103.40625 34.675781 102.882812 34.710938 102.210938 34.742188 C 101.933594 34.789062 101.648438 34.722656 101.417969 34.5625 C 101.1875 34.398438 101.03125 34.152344 100.980469 33.875 C 99.84375 30.679688 98.628906 27.507812 97.480469 24.3125 C 97.34375 23.9375 96.726562 23.332031 97.546875 23.089844 C 97.699219 23.019531 97.867188 22.980469 98.035156 22.980469 C 98.203125 22.980469 98.371094 23.019531 98.523438 23.089844 C 98.675781 23.164062 98.808594 23.269531 98.917969 23.398438 C 99.023438 23.53125 99.101562 23.683594 99.140625 23.847656 C 99.851562 26.027344 100.648438 28.179688 101.40625 30.339844 L 102.160156 32.363281 Z M 102.558594 32.476562 "/>
<path style=" stroke:none;fill-rule:nonzero;fill:rgb(0%,0%,0%);fill-opacity:1;" d="M 183.613281 32.785156 C 184.625 29.894531 185.636719 27.117188 186.566406 24.3125 C 186.929688 23.226562 187.488281 22.804688 188.71875 23.25 L 184.6875 34.199219 C 184.4375 34.878906 183.855469 34.703125 183.359375 34.734375 C 183.105469 34.792969 182.839844 34.753906 182.617188 34.617188 C 182.390625 34.484375 182.230469 34.269531 182.164062 34.015625 C 181.011719 30.792969 179.773438 27.589844 178.59375 24.367188 C 178.453125 23.960938 177.9375 23.355469 178.753906 23.121094 C 178.898438 23.050781 179.054688 23.011719 179.214844 23.007812 C 179.375 23.007812 179.53125 23.042969 179.675781 23.109375 C 179.820312 23.175781 179.949219 23.273438 180.050781 23.398438 C 180.152344 23.523438 180.226562 23.667969 180.261719 23.824219 C 181.019531 26.035156 181.773438 28.25 182.582031 30.429688 C 182.75 31.28125 183.101562 32.085938 183.613281 32.785156 Z M 183.613281 32.785156 "/>
<path style=" stroke:none;fill-rule:nonzero;fill:rgb(0%,0%,0%);fill-opacity:1;" d="M 134.097656 50.976562 C 134.035156 49.78125 134.035156 48.578125 134.097656 47.382812 C 134.226562 46.128906 133.710938 45.828125 132.585938 45.964844 C 132.015625 45.992188 131.445312 45.992188 130.875 45.964844 C 130.398438 45.964844 130.253906 45.707031 130.238281 45.277344 C 130.226562 44.84375 130.324219 44.445312 130.890625 44.445312 L 139.191406 44.445312 C 139.742188 44.445312 139.742188 44.800781 139.726562 45.199219 C 139.714844 45.601562 139.828125 45.957031 139.261719 46.007812 C 139.054688 46.007812 138.84375 46.007812 138.632812 46.007812 C 135.945312 46.078125 135.945312 46.078125 135.945312 48.75 C 135.945312 50.726562 135.945312 52.714844 135.945312 54.691406 C 135.945312 55.347656 136.277344 56.203125 134.988281 56.15625 C 133.695312 56.113281 134.128906 55.242188 134.105469 54.648438 C 134.066406 53.355469 134.097656 52.15625 134.097656 50.976562 Z M 134.097656 50.976562 "/>
<path style=" stroke:none;fill-rule:nonzero;fill:rgb(0%,0%,0%);fill-opacity:1;" d="M 150.628906 23.203125 C 149.667969 24.761719 148.890625 26.171875 147.980469 27.484375 C 146.71875 29.296875 145.859375 31.179688 146.195312 33.457031 C 146.28125 34.003906 146.476562 34.773438 145.398438 34.757812 C 144.316406 34.742188 144.5 34.003906 144.605469 33.449219 C 145.230469 30.273438 143.269531 28.023438 141.871094 25.566406 C 141.585938 25.1875 141.332031 24.785156 141.117188 24.359375 C 140.980469 23.96875 140.1875 23.566406 140.785156 23.210938 C 140.921875 23.109375 141.078125 23.039062 141.242188 23.003906 C 141.410156 22.96875 141.582031 22.96875 141.75 23.003906 C 141.914062 23.039062 142.070312 23.113281 142.207031 23.214844 C 142.34375 23.316406 142.457031 23.449219 142.535156 23.597656 C 143.085938 24.601562 143.691406 25.582031 144.28125 26.566406 C 144.640625 27.183594 145.035156 27.789062 145.519531 28.574219 C 146.5 26.964844 147.351562 25.550781 148.21875 24.148438 C 148.90625 23.074219 148.914062 23.074219 150.628906 23.203125 Z M 150.628906 23.203125 "/>
<g clip-path="url(#clip1)" clip-rule="nonzero">
<path style=" stroke:none;fill-rule:nonzero;fill:rgb(0%,0%,0%);fill-opacity:1;" d="M 229.28125 23.097656 C 230.535156 23.097656 231.789062 23.097656 233.054688 23.097656 C 233.699219 23.097656 234 23.234375 233.992188 23.953125 C 233.984375 24.667969 233.601562 24.648438 233.09375 24.707031 C 230.195312 24.902344 230.195312 24.917969 230.195312 27.796875 C 230.195312 29.773438 230.195312 31.757812 230.195312 33.746094 C 230.195312 34.457031 230.050781 34.78125 229.257812 34.773438 C 228.46875 34.765625 228.503906 34.335938 228.503906 33.761719 C 228.503906 31.199219 228.453125 28.640625 228.503906 26.089844 C 228.503906 25.007812 228.242188 24.578125 227.125 24.683594 C 226.511719 24.761719 225.871094 24.683594 225.25 24.683594 C 224.632812 24.683594 224.496094 24.367188 224.496094 23.824219 C 224.496094 23.28125 224.640625 23.070312 225.25 23.070312 C 226.574219 23.121094 227.929688 23.097656 229.28125 23.097656 Z M 229.28125 23.097656 "/>
</g>
<path style=" stroke:none;fill-rule:nonzero;fill:rgb(0%,0%,0%);fill-opacity:1;" d="M 176.382812 50.222656 C 176.382812 48.808594 176.332031 47.398438 176.382812 45.992188 C 176.382812 45.417969 175.832031 44.414062 177.199219 44.4375 C 178.566406 44.460938 177.90625 45.402344 177.953125 45.949219 C 178.011719 48.394531 178.011719 50.847656 177.953125 53.300781 C 177.953125 54.222656 178.148438 54.625 179.160156 54.542969 C 180.347656 54.449219 181.554688 54.542969 182.746094 54.542969 C 183.5 54.503906 183.652344 54.765625 183.636719 55.433594 C 183.621094 56.097656 183.34375 56.1875 182.769531 56.1875 C 180.941406 56.140625 179.125 56.132812 177.296875 56.1875 C 176.496094 56.1875 176.351562 55.855469 176.367188 55.152344 C 176.40625 53.4375 176.382812 51.824219 176.382812 50.222656 Z M 176.382812 50.222656 "/>
<path style=" stroke:none;fill-rule:nonzero;fill:rgb(0%,0%,0%);fill-opacity:1;" d="M 191.457031 50.222656 C 191.457031 51.835938 191.457031 53.460938 191.457031 55.078125 C 191.457031 55.644531 191.457031 56.058594 190.65625 56.050781 C 189.855469 56.042969 189.847656 55.671875 189.855469 55.078125 C 189.855469 51.84375 189.855469 48.609375 189.855469 45.375 C 189.855469 44.769531 189.925781 44.414062 190.671875 44.386719 C 191.417969 44.355469 191.425781 44.832031 191.425781 45.375 C 191.425781 46.988281 191.425781 48.605469 191.425781 50.222656 Z M 191.457031 50.222656 "/>
<path style=" stroke:none;fill-rule:nonzero;fill:rgb(0%,0%,0%);fill-opacity:1;" d="M 47.230469 26.8125 L 47.3125 26.859375 L 47.230469 26.804688 Z M 47.230469 26.8125 "/>
<path style=" stroke:none;fill-rule:nonzero;fill:rgb(0%,0%,0%);fill-opacity:1;" d="M 49.488281 26.332031 C 49.402344 26.332031 49.320312 26.300781 49.253906 26.246094 C 49.1875 26.191406 49.144531 26.113281 49.132812 26.027344 C 49.078125 25.855469 49.132812 25.664062 49.34375 25.671875 C 49.429688 25.6875 49.507812 25.726562 49.566406 25.789062 C 49.621094 25.855469 49.65625 25.933594 49.660156 26.019531 C 49.683594 26.164062 49.660156 26.292969 49.488281 26.332031 Z M 49.488281 26.332031 "/>
<path style=" stroke:none;fill-rule:nonzero;fill:rgb(0%,0%,0%);fill-opacity:1;" d="M 47.109375 25.808594 C 47.070312 25.671875 47.109375 25.605469 47.269531 25.628906 Z M 47.109375 25.808594 "/>
<path style=" stroke:none;fill-rule:nonzero;fill:rgb(0%,0%,0%);fill-opacity:1;" d="M 48.460938 25.402344 C 48.476562 25.375 48.5 25.351562 48.527344 25.335938 C 48.554688 25.316406 48.585938 25.308594 48.621094 25.304688 C 48.621094 25.46875 48.621094 25.539062 48.460938 25.402344 Z M 48.460938 25.402344 "/>
</g>
</svg>
