<?xml version="1.0" encoding="UTF-8"?>
<svg xmlns="http://www.w3.org/2000/svg" xmlns:xlink="http://www.w3.org/1999/xlink" width="px" height="0px" viewBox="0 0 234 74" version="1.1">
<defs>
<clipPath id="clip1">
  <path d="M 224 23 L 233.960938 23 L 233.960938 35 L 224 35 Z M 224 23 "/>
</clipPath>
</defs>
<g id="surface1">
<path style=" stroke:none;fill-rule:nonzero;fill:rgb(100%,100%,100%);fill-opacity:1;" d="M 14.75 56.585938 C 13.171875 54.894531 12.003906 53.210938 10.605469 51.710938 C 8.90625 49.875 7.285156 47.933594 5.496094 46.21875 C 5.078125 45.847656 4.753906 45.386719 4.539062 44.875 C 4.324219 44.359375 4.226562 43.800781 4.257812 43.246094 C 4.347656 38.570312 4.257812 33.902344 4.257812 29.230469 C 4.273438 28.234375 4.132812 27.242188 3.84375 26.292969 C 3.65625 25.589844 3.25 24.96875 2.6875 24.511719 C 2.121094 24.054688 1.425781 23.789062 0.703125 23.753906 C 0.113281 23.703125 -0.015625 23.558594 -0.0507812 23 C -0.0507812 22.246094 0.414062 22.464844 0.777344 22.464844 C 9.148438 22.464844 17.511719 22.464844 25.882812 22.464844 C 26.910156 22.464844 27.089844 22.164062 27.082031 21.210938 C 27.03125 15.992188 27.082031 10.769531 27.023438 5.550781 C 27.023438 3.003906 25.515625 1.359375 23.429688 1.457031 C 22.804688 1.496094 22.945312 1.042969 22.925781 0.703125 C 22.902344 0.363281 22.855469 -0.0546875 23.40625 0.0234375 C 23.613281 0.0234375 23.816406 0.0234375 24.027344 0.0234375 C 35.304688 0.0234375 46.589844 0.0234375 57.867188 0.0234375 C 58.921875 0.0234375 59.082031 0.429688 59.140625 1.320312 C 59.253906 2.832031 59.511719 4.34375 59.691406 5.851562 C 59.730469 6.183594 59.964844 6.675781 59.488281 6.804688 C 59.375 6.855469 59.25 6.878906 59.125 6.878906 C 58.996094 6.875 58.875 6.84375 58.761719 6.789062 C 58.648438 6.734375 58.546875 6.65625 58.46875 6.554688 C 58.390625 6.457031 58.332031 6.34375 58.304688 6.222656 C 56.726562 2.355469 53.773438 0.4375 49.609375 0.445312 L 39.117188 0.445312 C 37.6875 0.445312 37.6875 0.445312 37.6875 1.820312 C 37.6875 12.390625 37.6875 22.9375 37.6875 33.457031 L 37.6875 34.046875 C 36.898438 33.761719 36.65625 33.058594 36.246094 32.539062 C 33.574219 29.320312 30.683594 26.308594 27.839844 23.242188 C 27.714844 23.105469 27.5625 23 27.390625 22.933594 C 27.21875 22.867188 27.03125 22.839844 26.851562 22.855469 C 23.039062 22.855469 19.234375 22.855469 15.429688 22.855469 C 14.824219 22.855469 14.675781 23.054688 14.675781 23.613281 C 14.675781 31.164062 14.675781 38.714844 14.675781 46.265625 C 14.675781 46.890625 14.902344 46.984375 15.429688 46.984375 C 18.246094 46.984375 21.058594 46.984375 23.867188 46.984375 C 26.675781 46.984375 29.410156 44.679688 30.300781 41.914062 C 30.351562 41.582031 30.449219 41.253906 30.59375 40.949219 C 30.773438 40.675781 31.167969 40.796875 31.460938 40.820312 C 31.96875 40.867188 31.765625 41.289062 31.765625 41.574219 C 31.765625 45.417969 31.765625 49.261719 31.765625 53.113281 C 31.765625 53.414062 31.921875 53.867188 31.332031 53.867188 C 30.902344 53.867188 30.640625 53.867188 30.480469 53.28125 C 30.167969 51.945312 29.484375 50.722656 28.515625 49.753906 C 27.542969 48.785156 26.320312 48.109375 24.984375 47.796875 C 24.351562 47.660156 23.703125 47.597656 23.054688 47.617188 C 20.585938 47.617188 18.117188 47.617188 15.648438 47.617188 C 14.773438 47.617188 14.644531 47.933594 14.652344 48.679688 C 14.773438 51.171875 14.75 53.75 14.75 56.585938 Z M 14.75 56.585938 "/>
<path style=" stroke:none;fill-rule:nonzero;fill:rgb(100%,100%,100%);fill-opacity:1;" d="M 52.175781 31.359375 C 52.175781 28.574219 50.5 26.828125 47.230469 26.230469 C 47.210938 26.207031 47.183594 26.191406 47.152344 26.183594 C 47.125 26.175781 47.09375 26.179688 47.0625 26.195312 L 46.996094 25.785156 L 47.070312 25.785156 L 47.230469 25.605469 C 47.644531 25.558594 47.984375 25.28125 48.460938 25.378906 C 48.589844 25.515625 48.632812 25.445312 48.648438 25.3125 C 49.058594 25.015625 49.601562 24.957031 49.941406 24.554688 C 50.585938 24.175781 51.128906 23.640625 51.523438 23.003906 C 51.917969 22.367188 52.152344 21.640625 52.203125 20.894531 C 52.203125 20.613281 52.128906 20.246094 52.613281 20.207031 C 53.09375 20.167969 52.996094 20.523438 53.042969 20.816406 C 53.183594 21.925781 53.671875 22.964844 54.4375 23.777344 C 55.203125 24.59375 56.207031 25.140625 57.308594 25.347656 C 57.503906 25.394531 57.691406 25.484375 57.894531 25.523438 C 58.101562 25.558594 58.328125 25.523438 58.347656 25.800781 C 58.371094 26.082031 58.101562 26.117188 57.867188 26.179688 C 57.414062 26.292969 56.96875 26.453125 56.523438 26.59375 C 55.679688 26.832031 54.917969 27.304688 54.335938 27.960938 C 53.753906 28.617188 53.375 29.429688 53.238281 30.292969 C 52.847656 30.632812 53.140625 31.109375 53.011719 31.503906 C 52.703125 31.546875 52.394531 31.644531 52.175781 31.359375 Z M 49.488281 26.332031 C 49.660156 26.292969 49.683594 26.171875 49.660156 26.027344 C 49.636719 25.886719 49.523438 25.6875 49.34375 25.679688 C 49.164062 25.671875 49.078125 25.855469 49.132812 26.027344 C 49.144531 26.113281 49.1875 26.191406 49.253906 26.246094 C 49.320312 26.300781 49.402344 26.332031 49.488281 26.332031 Z M 49.488281 26.332031 "/>
<path style=" stroke:none;fill-rule:nonzero;fill:rgb(100%,100%,100%);fill-opacity:1;" d="M 25.589844 73.652344 C 27.183594 73.457031 28.609375 73.652344 29.953125 73.375 C 33.0625 72.707031 35.824219 71.539062 37.328125 68.496094 C 37.695312 67.742188 38.21875 68.085938 38.796875 68.027344 C 38.457031 69.90625 38.121094 71.703125 37.816406 73.5 C 37.765625 73.820312 37.71875 74 37.339844 74 C 33.566406 74 29.792969 74 26.019531 73.953125 C 25.972656 73.953125 25.875 73.847656 25.589844 73.652344 Z M 25.589844 73.652344 "/>
<path style=" stroke:none;fill-rule:nonzero;fill:rgb(100%,100%,100%);fill-opacity:1;" d="M 210.425781 25.960938 C 210.425781 28.820312 210.425781 31.207031 210.425781 33.59375 C 210.425781 34.109375 210.675781 34.78125 209.671875 34.757812 C 208.667969 34.734375 208.847656 34.199219 208.847656 33.617188 C 208.847656 30.527344 208.847656 27.441406 208.847656 24.351562 C 208.847656 23.914062 208.5 23.234375 209.363281 23.128906 C 209.660156 23.042969 209.976562 23.058594 210.261719 23.171875 C 210.550781 23.285156 210.792969 23.484375 210.953125 23.746094 C 212.585938 26.230469 214.292969 28.671875 215.96875 31.125 L 216.660156 32.136719 C 216.660156 29.253906 216.660156 26.851562 216.660156 24.421875 C 216.660156 23.875 216.335938 23.097656 217.417969 23.074219 C 218.496094 23.054688 218.230469 23.761719 218.230469 24.34375 C 218.230469 27.363281 218.230469 30.386719 218.230469 33.449219 C 218.230469 33.890625 218.585938 34.589844 217.757812 34.710938 C 217.402344 34.8125 217.023438 34.792969 216.683594 34.65625 C 216.34375 34.519531 216.054688 34.273438 215.867188 33.957031 C 214.359375 31.640625 212.804688 29.375 211.265625 27.085938 C 211.113281 26.859375 210.910156 26.617188 210.425781 25.960938 Z M 210.425781 25.960938 "/>
<path style=" stroke:none;fill-rule:nonzero;fill:rgb(100%,100%,100%);fill-opacity:1;" d="M 145.992188 50.265625 L 145.992188 45.410156 C 145.992188 44.9375 145.925781 44.414062 146.640625 44.421875 C 148.097656 44.363281 149.558594 44.390625 151.011719 44.503906 C 151.675781 44.542969 152.308594 44.792969 152.816406 45.21875 C 153.324219 45.648438 153.679688 46.230469 153.828125 46.875 C 154.167969 48.453125 153.828125 49.996094 152.320312 50.820312 C 151.308594 51.371094 151.5625 51.800781 152.054688 52.433594 C 152.652344 53.1875 153.285156 53.988281 153.8125 54.820312 C 154.023438 55.167969 154.992188 55.523438 154.207031 55.992188 C 153.910156 56.164062 153.558594 56.222656 153.222656 56.152344 C 152.886719 56.082031 152.589844 55.890625 152.386719 55.613281 C 151.578125 54.464844 150.660156 53.402344 149.917969 52.214844 C 149.753906 51.890625 149.480469 51.632812 149.140625 51.492188 C 148.804688 51.355469 148.429688 51.34375 148.085938 51.460938 C 147.214844 51.65625 147.667969 52.398438 147.625 52.894531 C 147.566406 53.675781 147.566406 54.460938 147.625 55.242188 C 147.625 55.832031 147.472656 56.066406 146.867188 56.066406 C 146.265625 56.066406 146.015625 55.898438 146.023438 55.273438 C 145.992188 53.605469 145.992188 51.9375 145.992188 50.265625 Z M 147.59375 48 C 147.644531 49 147.09375 50.265625 149.035156 50.132812 C 150.976562 49.996094 152.222656 49.375 152.265625 47.980469 C 152.3125 46.582031 151.292969 45.976562 149.109375 45.789062 C 147.058594 45.609375 147.660156 46.976562 147.585938 47.996094 Z M 147.59375 48 "/>
<path style=" stroke:none;fill-rule:nonzero;fill:rgb(100%,100%,100%);fill-opacity:1;" d="M 48.769531 51.347656 C 50.390625 51.410156 52.015625 51.265625 53.601562 50.917969 C 56.445312 50.222656 58.953125 49 60.296875 46.183594 C 60.574219 45.609375 61.050781 45.714844 61.398438 45.789062 C 61.746094 45.863281 61.664062 46.371094 61.617188 46.644531 C 61.382812 48.152344 61.082031 49.707031 60.816406 51.242188 C 60.765625 51.519531 60.71875 51.761719 60.339844 51.761719 C 56.613281 51.761719 52.882812 51.761719 49.164062 51.761719 C 48.964844 51.746094 48.84375 51.625 48.769531 51.347656 Z M 48.769531 51.347656 "/>
<path style=" stroke:none;fill-rule:nonzero;fill:rgb(100%,100%,100%);fill-opacity:1;" d="M 136.179688 34.574219 C 134.8125 34.96875 134.050781 34.574219 133.457031 33.59375 C 132.933594 32.703125 132.210938 31.925781 131.636719 31.050781 C 131.445312 30.734375 131.152344 30.5 130.804688 30.378906 C 130.457031 30.257812 130.078125 30.261719 129.734375 30.394531 C 128.875 30.613281 129.339844 31.34375 129.289062 31.84375 C 129.234375 32.574219 129.234375 33.308594 129.289062 34.039062 C 129.289062 34.628906 129.007812 34.734375 128.535156 34.734375 C 128.058594 34.734375 127.695312 34.660156 127.695312 34.078125 C 127.695312 30.621094 127.695312 27.167969 127.695312 23.71875 C 127.695312 23.074219 128.132812 23.089844 128.550781 23.097656 C 129.953125 23.023438 131.363281 23.085938 132.753906 23.289062 C 134.15625 23.589844 135.238281 24.238281 135.523438 25.679688 C 135.8125 27.125 135.523438 28.65625 134.050781 29.5 C 133.167969 30 132.980469 30.371094 133.726562 31.207031 C 134.566406 32.207031 135.273438 33.359375 136.179688 34.574219 Z M 129.242188 26.671875 C 129.460938 27.464844 128.554688 28.851562 130.480469 28.792969 C 132.746094 28.714844 133.953125 28.035156 133.894531 26.527344 C 133.832031 25.015625 132.972656 24.722656 130.910156 24.5625 C 129.167969 24.472656 129.0625 25.378906 129.242188 26.671875 Z M 129.242188 26.671875 "/>
<path style=" stroke:none;fill-rule:nonzero;fill:rgb(100%,100%,100%);fill-opacity:1;" d="M 84.140625 28.828125 C 84.140625 27.257812 84.140625 25.695312 84.140625 24.125 C 84.140625 23.308594 84.382812 23.039062 85.222656 23.0625 C 86.941406 23.121094 88.664062 23.0625 90.382812 23.0625 C 91.042969 23.0625 91.5 23.136719 91.472656 23.972656 C 91.441406 24.8125 90.914062 24.730469 90.382812 24.730469 C 89.5 24.730469 88.609375 24.691406 87.726562 24.730469 C 87.144531 24.730469 86.253906 24.398438 86.050781 25.0625 C 85.875 25.929688 85.859375 26.824219 86.007812 27.695312 C 86.042969 28.1875 86.558594 28.050781 86.898438 28.066406 C 87.886719 28.066406 88.875 28.066406 89.863281 28.066406 C 90.257812 28.066406 90.785156 27.902344 90.792969 28.558594 C 90.800781 29.214844 90.566406 29.570312 89.871094 29.5625 C 88.933594 29.5625 87.992188 29.5625 87.054688 29.5625 C 86.300781 29.5625 85.953125 29.742188 85.90625 30.605469 C 85.773438 33.359375 85.734375 33.351562 88.480469 33.324219 L 90.828125 33.324219 C 91.261719 33.324219 91.515625 33.488281 91.539062 33.957031 C 91.5625 34.425781 91.375 34.757812 90.835938 34.757812 C 88.851562 34.757812 86.875 34.757812 84.890625 34.757812 C 84.074219 34.757812 84.132812 34.214844 84.132812 33.683594 L 84.132812 28.828125 Z M 84.140625 28.828125 "/>
<path style=" stroke:none;fill-rule:nonzero;fill:rgb(100%,100%,100%);fill-opacity:1;" d="M 113.617188 28.816406 C 113.617188 27.242188 113.617188 25.679688 113.617188 24.109375 C 113.617188 23.445312 113.695312 23.023438 114.539062 23.054688 C 116.367188 23.105469 118.191406 23.089844 120.019531 23.054688 C 120.570312 23.054688 120.917969 23.128906 120.917969 23.808594 C 120.917969 24.488281 120.660156 24.738281 119.980469 24.699219 C 119.300781 24.660156 118.417969 24.699219 117.632812 24.699219 C 115.195312 24.699219 115.234375 24.699219 115.371094 27.085938 C 115.371094 27.839844 115.671875 28.097656 116.386719 28.066406 C 117.378906 28.066406 118.375 28.066406 119.363281 28.066406 C 119.769531 28.066406 120.292969 27.96875 120.296875 28.582031 C 120.304688 29.191406 120.058594 29.601562 119.371094 29.59375 C 118.425781 29.59375 117.484375 29.628906 116.546875 29.59375 C 115.609375 29.554688 115.308594 29.902344 115.382812 30.769531 C 115.421875 31.242188 115.421875 31.710938 115.382812 32.183594 C 115.300781 33.050781 115.617188 33.414062 116.523438 33.367188 C 117.664062 33.308594 118.789062 33.367188 119.964844 33.367188 C 120.503906 33.367188 121.046875 33.367188 121.015625 34.125 C 120.984375 34.878906 120.511719 34.765625 120.027344 34.765625 C 118.253906 34.765625 116.472656 34.71875 114.699219 34.765625 C 113.84375 34.765625 113.609375 34.46875 113.632812 33.675781 C 113.648438 32.0625 113.617188 30.445312 113.617188 28.816406 Z M 113.617188 28.816406 "/>
<path style=" stroke:none;fill-rule:nonzero;fill:rgb(100%,100%,100%);fill-opacity:1;" d="M 165.273438 28.792969 C 165.273438 27.222656 165.273438 25.652344 165.273438 24.085938 C 165.273438 23.332031 165.46875 23.054688 166.230469 23.074219 C 168.058594 23.117188 169.882812 23.117188 171.710938 23.074219 C 172.308594 23.074219 172.542969 23.210938 172.554688 23.832031 C 172.570312 24.449219 172.34375 24.753906 171.65625 24.714844 C 170.511719 24.660156 169.394531 24.714844 168.207031 24.675781 C 166.601562 24.625 167.273438 25.832031 167.195312 26.558594 C 167.121094 27.28125 166.894531 28.210938 168.238281 28.066406 C 169.113281 27.984375 170.011719 28.066406 170.894531 28.066406 C 171.445312 28.066406 171.960938 28 171.9375 28.820312 C 171.914062 29.644531 171.410156 29.578125 170.859375 29.578125 L 169.605469 29.578125 C 167.167969 29.578125 166.585938 30.332031 167.167969 32.75 C 167.324219 33.445312 167.769531 33.34375 168.222656 33.351562 L 171.824219 33.351562 C 172.328125 33.351562 172.765625 33.390625 172.78125 34.109375 C 172.796875 34.824219 172.300781 34.796875 171.824219 34.796875 C 169.996094 34.796875 168.164062 34.75 166.34375 34.796875 C 165.5 34.796875 165.257812 34.5 165.273438 33.699219 C 165.300781 32.039062 165.273438 30.445312 165.273438 28.792969 Z M 165.273438 28.792969 "/>
<path style=" stroke:none;fill-rule:nonzero;fill:rgb(100%,100%,100%);fill-opacity:1;" d="M 100.90625 48.792969 C 100.90625 47.648438 100.90625 46.492188 100.90625 45.34375 C 100.90625 44.710938 101.050781 44.378906 101.765625 44.378906 C 102.484375 44.378906 102.589844 44.800781 102.582031 45.390625 C 102.582031 47.433594 102.53125 49.472656 102.582031 51.511719 C 102.65625 54.066406 104.710938 55.410156 107 54.480469 C 107.558594 54.253906 108.03125 53.855469 108.34375 53.335938 C 108.65625 52.816406 108.789062 52.210938 108.726562 51.609375 C 108.726562 49.617188 108.726562 47.632812 108.726562 45.636719 C 108.726562 45.019531 108.597656 44.355469 109.617188 44.378906 C 110.636719 44.398438 110.425781 45.132812 110.425781 45.699219 C 110.425781 47.851562 110.464844 49.996094 110.425781 52.140625 C 110.328125 54.730469 108.425781 56.253906 105.488281 56.210938 C 102.726562 56.164062 100.960938 54.527344 100.914062 51.9375 C 100.914062 50.894531 100.914062 49.84375 100.914062 48.792969 Z M 100.90625 48.792969 "/>
<path style=" stroke:none;fill-rule:nonzero;fill:rgb(100%,100%,100%);fill-opacity:1;" d="M 120.796875 56.1875 C 119.523438 56.261719 118.257812 55.964844 117.152344 55.328125 C 116.828125 55.113281 116.296875 54.949219 116.78125 54.414062 C 117.058594 54.109375 117.195312 53.582031 117.875 53.996094 C 118.808594 54.585938 119.910156 54.851562 121.007812 54.753906 C 121.953125 54.648438 122.871094 54.433594 123.089844 53.242188 C 123.308594 52.050781 122.625 51.527344 121.679688 51.144531 C 120.617188 50.710938 119.542969 50.296875 118.503906 49.828125 C 117.996094 49.605469 117.578125 49.222656 117.304688 48.742188 C 117.035156 48.261719 116.921875 47.703125 116.992188 47.15625 C 116.996094 46.601562 117.167969 46.0625 117.484375 45.609375 C 117.804688 45.15625 118.253906 44.808594 118.773438 44.617188 C 119.597656 44.289062 120.480469 44.140625 121.363281 44.183594 C 122.246094 44.226562 123.113281 44.457031 123.898438 44.859375 C 124.277344 45.035156 124.859375 45.183594 124.503906 45.878906 C 124.148438 46.574219 123.898438 46.636719 123.289062 46.226562 C 122.421875 45.714844 121.398438 45.535156 120.410156 45.722656 C 119.710938 45.8125 118.902344 45.949219 118.773438 46.871094 C 118.714844 47.238281 118.789062 47.613281 118.984375 47.933594 C 119.179688 48.25 119.484375 48.488281 119.839844 48.597656 C 120.964844 49.132812 122.199219 49.464844 123.289062 50.0625 C 123.773438 50.296875 124.191406 50.65625 124.496094 51.097656 C 124.804688 51.542969 124.988281 52.058594 125.035156 52.597656 C 125.082031 53.136719 124.988281 53.675781 124.761719 54.167969 C 124.535156 54.65625 124.1875 55.078125 123.75 55.394531 C 122.78125 56.164062 121.679688 56.121094 120.796875 56.1875 Z M 120.796875 56.1875 "/>
<path style=" stroke:none;fill-rule:nonzero;fill:rgb(100%,100%,100%);fill-opacity:1;" d="M 90.136719 44.421875 C 90.851562 44.277344 91.246094 44.550781 91.507812 45.292969 C 92.6875 48.523438 93.925781 51.738281 95.148438 54.957031 C 95.285156 55.328125 95.660156 55.757812 95.070312 56.007812 C 94.859375 56.105469 94.621094 56.144531 94.386719 56.113281 C 94.152344 56.085938 93.933594 55.988281 93.75 55.839844 C 93.617188 55.679688 93.511719 55.5 93.441406 55.304688 C 92.996094 54.441406 93.125 53.039062 92.164062 52.765625 C 90.890625 52.496094 89.574219 52.464844 88.285156 52.675781 C 87.070312 52.796875 87.34375 54.109375 86.925781 54.867188 C 86.601562 55.445312 86.578125 56.195312 85.613281 56.105469 C 85.039062 56.050781 84.722656 55.984375 84.988281 55.273438 C 86.28125 51.914062 87.539062 48.546875 88.761719 45.171875 C 88.796875 45.027344 88.863281 44.894531 88.953125 44.777344 C 89.042969 44.660156 89.15625 44.566406 89.285156 44.496094 C 89.414062 44.425781 89.554688 44.382812 89.703125 44.371094 C 89.847656 44.359375 89.996094 44.375 90.136719 44.421875 Z M 90.257812 46.515625 L 89.894531 46.515625 C 89.421875 47.828125 88.945312 49.148438 88.476562 50.472656 C 88.300781 50.960938 88.210938 51.382812 89.003906 51.339844 C 89.796875 51.292969 90.460938 51.339844 91.191406 51.339844 C 91.75 51.339844 91.945312 51.097656 91.757812 50.585938 C 91.238281 49.21875 90.730469 47.867188 90.234375 46.515625 Z M 90.257812 46.515625 "/>
<path style=" stroke:none;fill-rule:nonzero;fill:rgb(100%,100%,100%);fill-opacity:1;" d="M 194.726562 28.820312 C 194.726562 27.257812 194.726562 25.6875 194.726562 24.117188 C 194.726562 23.453125 194.792969 23.054688 195.625 23.074219 C 197.449219 23.128906 199.277344 23.074219 201.105469 23.074219 C 201.640625 23.074219 202.003906 23.121094 201.996094 23.832031 C 201.988281 24.539062 201.804688 24.765625 201.097656 24.730469 C 199.894531 24.675781 198.695312 24.730469 197.496094 24.730469 C 196.742188 24.730469 196.386719 24.835938 196.371094 25.742188 C 196.320312 28.113281 196.265625 28.105469 198.636719 28.121094 C 199.210938 28.121094 199.789062 28.121094 200.355469 28.121094 C 200.773438 28.121094 201.382812 27.917969 201.339844 28.722656 C 201.292969 29.382812 200.921875 29.613281 200.296875 29.601562 C 199.414062 29.601562 198.523438 29.601562 197.640625 29.601562 C 196.757812 29.601562 196.378906 29.871094 196.378906 30.851562 C 196.378906 33.398438 196.320312 33.398438 198.792969 33.398438 C 199.632812 33.398438 200.460938 33.4375 201.300781 33.398438 C 201.882812 33.398438 202.003906 33.640625 202.054688 34.152344 C 202.109375 34.667969 201.804688 34.839844 201.300781 34.832031 C 199.429688 34.832031 197.550781 34.832031 195.667969 34.832031 C 194.988281 34.832031 194.761719 34.582031 194.777344 33.910156 C 194.757812 32.175781 194.726562 30.5 194.726562 28.820312 Z M 194.726562 28.820312 "/>
<path style=" stroke:none;fill-rule:nonzero;fill:rgb(100%,100%,100%);fill-opacity:1;" d="M 202.945312 44.421875 C 203.65625 44.242188 204.003906 44.566406 204.238281 45.179688 C 205.421875 48.378906 206.644531 51.574219 207.84375 54.773438 C 208.011719 55.214844 208.539062 55.785156 207.714844 56.027344 C 207.136719 56.210938 206.371094 56.15625 206.257812 55.320312 C 205.933594 52.863281 204.472656 52.390625 202.242188 52.5625 C 200.90625 52.660156 200.167969 52.894531 199.835938 54.300781 C 199.683594 54.941406 199.746094 56.082031 198.484375 56.035156 C 197.917969 56.035156 197.527344 55.953125 197.789062 55.28125 C 199.097656 51.84375 200.425781 48.417969 201.691406 44.964844 C 201.964844 44.21875 202.5 44.5 202.945312 44.421875 Z M 202.886719 46.128906 C 202.492188 47.132812 202.128906 47.941406 201.867188 48.773438 C 200.886719 51.792969 200.402344 51.265625 203.761719 51.347656 C 204.597656 51.347656 204.765625 51.097656 204.457031 50.335938 C 203.925781 49.035156 203.464844 47.707031 202.886719 46.128906 Z M 202.886719 46.128906 "/>
<path style=" stroke:none;fill-rule:nonzero;fill:rgb(100%,100%,100%);fill-opacity:1;" d="M 169.308594 56.035156 C 168.253906 56.285156 168.230469 55.378906 167.9375 54.753906 C 167.640625 54.125 167.71875 52.84375 166.8125 52.714844 C 165.414062 52.550781 164 52.574219 162.605469 52.78125 C 162.078125 52.847656 162.085938 53.742188 161.851562 54.253906 C 161.617188 54.765625 161.550781 55.25 161.308594 55.710938 C 160.992188 56.316406 160.359375 56.132812 159.914062 56.011719 C 159.210938 55.824219 159.738281 55.296875 159.84375 55.007812 C 161.007812 51.835938 162.246094 48.695312 163.398438 45.523438 C 163.65625 44.769531 163.929688 44.398438 164.796875 44.398438 C 165.121094 44.351562 165.457031 44.429688 165.726562 44.621094 C 165.996094 44.808594 166.179688 45.09375 166.246094 45.417969 C 167.40625 48.644531 168.632812 51.84375 169.855469 55.046875 C 170.085938 55.628906 170.441406 56.1875 169.308594 56.035156 Z M 164.78125 46.03125 C 164.140625 47.804688 163.671875 49.195312 163.136719 50.5625 C 162.855469 51.316406 163.265625 51.414062 163.777344 51.316406 C 164.722656 51.171875 165.761719 51.761719 166.601562 50.9375 C 166.601562 50.9375 166.53125 50.757812 166.496094 50.667969 Z M 164.78125 46.03125 "/>
<path style=" stroke:none;fill-rule:nonzero;fill:rgb(100%,100%,100%);fill-opacity:1;" d="M 102.558594 32.476562 L 105.375 24.570312 C 105.496094 24.167969 105.652344 23.78125 105.84375 23.40625 C 106.191406 22.835938 106.808594 23.03125 107.246094 23.167969 C 107.683594 23.300781 107.421875 23.800781 107.308594 24.101562 C 106.109375 27.386719 104.863281 30.648438 103.683594 33.917969 C 103.40625 34.675781 102.882812 34.710938 102.210938 34.742188 C 101.933594 34.789062 101.648438 34.722656 101.417969 34.5625 C 101.1875 34.398438 101.03125 34.152344 100.980469 33.875 C 99.84375 30.679688 98.628906 27.507812 97.480469 24.320312 C 97.34375 23.945312 96.726562 23.332031 97.546875 23.089844 C 97.699219 23.019531 97.867188 22.980469 98.035156 22.980469 C 98.203125 22.980469 98.371094 23.019531 98.523438 23.089844 C 98.675781 23.164062 98.808594 23.269531 98.917969 23.398438 C 99.023438 23.53125 99.101562 23.683594 99.140625 23.847656 C 99.851562 26.027344 100.648438 28.179688 101.40625 30.339844 L 102.160156 32.363281 Z M 102.558594 32.476562 "/>
<path style=" stroke:none;fill-rule:nonzero;fill:rgb(100%,100%,100%);fill-opacity:1;" d="M 183.613281 32.785156 C 184.625 29.894531 185.636719 27.125 186.566406 24.3125 C 186.929688 23.234375 187.488281 22.804688 188.71875 23.257812 L 184.6875 34.222656 C 184.4375 34.902344 183.855469 34.726562 183.359375 34.757812 C 183.105469 34.816406 182.839844 34.777344 182.617188 34.640625 C 182.390625 34.507812 182.230469 34.292969 182.164062 34.039062 C 181.011719 30.816406 179.773438 27.613281 178.59375 24.390625 C 178.453125 23.980469 177.9375 23.378906 178.753906 23.144531 C 178.898438 23.074219 179.054688 23.035156 179.214844 23.03125 C 179.375 23.03125 179.53125 23.0625 179.675781 23.132812 C 179.820312 23.199219 179.949219 23.296875 180.050781 23.421875 C 180.152344 23.546875 180.226562 23.691406 180.261719 23.847656 C 181.003906 26.066406 181.773438 28.269531 182.582031 30.460938 C 182.75 31.300781 183.105469 32.097656 183.613281 32.785156 Z M 183.613281 32.785156 "/>
<path style=" stroke:none;fill-rule:nonzero;fill:rgb(100%,100%,100%);fill-opacity:1;" d="M 134.097656 50.953125 C 134.035156 49.757812 134.035156 48.558594 134.097656 47.359375 C 134.226562 46.105469 133.710938 45.804688 132.585938 45.941406 C 132.015625 45.96875 131.445312 45.96875 130.875 45.941406 C 130.398438 45.941406 130.253906 45.691406 130.238281 45.253906 C 130.226562 44.816406 130.324219 44.421875 130.890625 44.421875 C 133.652344 44.421875 136.40625 44.421875 139.191406 44.421875 C 139.742188 44.421875 139.742188 44.777344 139.726562 45.179688 C 139.714844 45.578125 139.828125 45.933594 139.261719 45.984375 C 139.054688 45.984375 138.84375 45.984375 138.632812 45.984375 C 135.945312 46.054688 135.945312 46.054688 135.945312 48.71875 C 135.945312 50.699219 135.945312 52.683594 135.945312 54.660156 C 135.945312 55.320312 136.277344 56.171875 134.988281 56.125 C 133.695312 56.082031 134.128906 55.214844 134.105469 54.617188 C 134.066406 53.355469 134.097656 52.15625 134.097656 50.953125 Z M 134.097656 50.953125 "/>
<path style=" stroke:none;fill-rule:nonzero;fill:rgb(100%,100%,100%);fill-opacity:1;" d="M 150.628906 23.210938 C 149.667969 24.761719 148.890625 26.171875 147.980469 27.492188 C 146.71875 29.296875 145.859375 31.179688 146.195312 33.457031 C 146.28125 34.003906 146.476562 34.773438 145.398438 34.757812 C 144.316406 34.742188 144.5 34.003906 144.605469 33.449219 C 145.230469 30.273438 143.269531 28.023438 141.871094 25.566406 C 141.585938 25.1875 141.332031 24.785156 141.117188 24.359375 C 140.980469 23.972656 140.1875 23.566406 140.785156 23.210938 C 140.921875 23.109375 141.078125 23.039062 141.242188 23.003906 C 141.410156 22.96875 141.582031 22.96875 141.75 23.003906 C 141.914062 23.039062 142.070312 23.113281 142.207031 23.214844 C 142.34375 23.316406 142.457031 23.449219 142.535156 23.597656 C 143.085938 24.601562 143.691406 25.582031 144.28125 26.570312 C 144.640625 27.183594 145.035156 27.789062 145.519531 28.574219 C 146.5 26.964844 147.351562 25.550781 148.21875 24.148438 C 148.90625 23.074219 148.914062 23.074219 150.628906 23.210938 Z M 150.628906 23.210938 "/>
<g clip-path="url(#clip1)" clip-rule="nonzero">
<path style=" stroke:none;fill-rule:nonzero;fill:rgb(100%,100%,100%);fill-opacity:1;" d="M 229.28125 23.097656 C 230.535156 23.097656 231.789062 23.097656 233.054688 23.097656 C 233.699219 23.097656 234 23.234375 233.992188 23.953125 C 233.984375 24.667969 233.601562 24.652344 233.09375 24.707031 C 230.195312 24.910156 230.195312 24.917969 230.195312 27.796875 C 230.195312 29.773438 230.195312 31.757812 230.195312 33.746094 C 230.195312 34.457031 230.050781 34.78125 229.257812 34.773438 C 228.46875 34.765625 228.503906 34.335938 228.503906 33.761719 C 228.503906 31.199219 228.453125 28.640625 228.503906 26.089844 C 228.503906 25.007812 228.242188 24.578125 227.125 24.683594 C 226.511719 24.761719 225.871094 24.683594 225.25 24.683594 C 224.632812 24.683594 224.496094 24.359375 224.496094 23.816406 C 224.496094 23.273438 224.640625 23.0625 225.25 23.0625 C 226.574219 23.121094 227.929688 23.097656 229.28125 23.097656 Z M 229.28125 23.097656 "/>
</g>
<path style=" stroke:none;fill-rule:nonzero;fill:rgb(100%,100%,100%);fill-opacity:1;" d="M 176.382812 50.207031 C 176.382812 48.792969 176.332031 47.382812 176.382812 45.976562 C 176.382812 45.40625 175.832031 44.40625 177.199219 44.421875 C 178.566406 44.4375 177.90625 45.390625 177.953125 45.933594 C 178.011719 48.378906 178.011719 50.832031 177.953125 53.289062 C 177.953125 54.214844 178.148438 54.609375 179.160156 54.527344 C 180.347656 54.433594 181.554688 54.527344 182.746094 54.527344 C 183.5 54.488281 183.652344 54.753906 183.636719 55.417969 C 183.621094 56.082031 183.34375 56.171875 182.769531 56.171875 C 180.941406 56.125 179.125 56.121094 177.296875 56.171875 C 176.496094 56.171875 176.351562 55.839844 176.367188 55.144531 C 176.40625 53.4375 176.382812 51.824219 176.382812 50.207031 Z M 176.382812 50.207031 "/>
<path style=" stroke:none;fill-rule:nonzero;fill:rgb(100%,100%,100%);fill-opacity:1;" d="M 191.457031 50.238281 C 191.457031 51.859375 191.457031 53.476562 191.457031 55.09375 C 191.457031 55.667969 191.457031 56.082031 190.65625 56.066406 C 189.855469 56.050781 189.847656 55.6875 189.855469 55.09375 C 189.855469 51.859375 189.855469 48.625 189.855469 45.390625 C 189.855469 44.792969 189.925781 44.429688 190.671875 44.398438 C 191.417969 44.371094 191.425781 44.84375 191.425781 45.390625 C 191.425781 47.003906 191.425781 48.621094 191.425781 50.238281 Z M 191.457031 50.238281 "/>
<path style=" stroke:none;fill-rule:nonzero;fill:rgb(100%,100%,100%);fill-opacity:1;" d="M 47.230469 26.828125 L 47.3125 26.875 Z M 47.230469 26.828125 "/>
<path style=" stroke:none;fill-rule:nonzero;fill:rgb(100%,100%,100%);fill-opacity:1;" d="M 49.488281 26.332031 C 49.402344 26.332031 49.320312 26.300781 49.253906 26.246094 C 49.1875 26.191406 49.144531 26.113281 49.132812 26.027344 C 49.078125 25.855469 49.132812 25.664062 49.34375 25.679688 C 49.554688 25.695312 49.628906 25.839844 49.660156 26.027344 C 49.691406 26.21875 49.660156 26.292969 49.488281 26.332031 Z M 49.488281 26.332031 "/>
<path style=" stroke:none;fill-rule:nonzero;fill:rgb(100%,100%,100%);fill-opacity:1;" d="M 47.109375 25.808594 C 47.070312 25.671875 47.109375 25.605469 47.269531 25.628906 Z M 47.109375 25.808594 "/>
<path style=" stroke:none;fill-rule:nonzero;fill:rgb(100%,100%,100%);fill-opacity:1;" d="M 48.460938 25.402344 C 48.484375 25.375 48.515625 25.355469 48.546875 25.34375 C 48.578125 25.332031 48.613281 25.328125 48.648438 25.332031 C 48.621094 25.46875 48.621094 25.539062 48.460938 25.402344 Z M 48.460938 25.402344 "/>
</g>
</svg>
