<svg width="310" height="98" viewBox="0 0 310 98" fill="none" xmlns="http://www.w3.org/2000/svg">
<g clip-path="url(#clip0_7_5776)">
<path d="M19.5402 74.94C17.4502 72.7 15.9002 70.47 14.0502 68.48C11.8002 66.05 9.65018 63.48 7.28018 61.21C6.73304 60.715 6.30225 60.1049 6.01871 59.4237C5.73516 58.7425 5.60591 58.007 5.6402 57.27C5.7602 51.08 5.6402 44.89 5.6402 38.71C5.66322 37.3924 5.47757 36.0795 5.09018 34.82C4.843 33.891 4.30672 33.0647 3.55887 32.4607C2.81102 31.8566 1.89038 31.5062 0.930176 31.46C0.150176 31.39 -0.0198242 31.2 -0.0698242 30.46C-0.0698242 29.46 0.550182 29.75 1.03018 29.75C12.1202 29.75 23.2002 29.75 34.2902 29.75C35.6502 29.75 35.8902 29.36 35.8802 28.1C35.8102 21.19 35.8802 14.27 35.8002 7.35999C35.8002 3.98999 33.8002 1.80998 31.0402 1.93998C30.2102 1.93998 30.4002 1.38998 30.3702 0.939975C30.3402 0.489975 30.2802 -0.0600189 31.0102 0.0399811C31.2802 0.0399811 31.5502 0.0399811 31.8302 0.0399811C46.7702 0.0399811 61.7202 0.0399811 76.6602 0.0399811C78.0602 0.0399811 78.2702 0.579982 78.3502 1.75998C78.5002 3.75998 78.8402 5.75998 79.0802 7.75998C79.1302 8.19998 79.4402 8.84999 78.8102 9.01999C78.6578 9.08769 78.4924 9.12114 78.3257 9.11798C78.159 9.11483 77.995 9.07513 77.8453 9.00171C77.6956 8.92829 77.5638 8.82291 77.4593 8.69303C77.3547 8.56314 77.2799 8.4119 77.2402 8.24997C75.1502 3.12997 71.2402 0.579969 65.7202 0.589969H51.8202C49.9302 0.589969 49.9302 0.589976 49.9302 2.40998C49.9302 16.41 49.9302 30.3766 49.9302 44.31V45.09C48.8802 44.71 48.5602 43.77 48.0202 43.09C44.4802 38.83 40.6502 34.84 36.8802 30.78C36.7165 30.5984 36.5131 30.4571 36.2859 30.3669C36.0588 30.2767 35.8138 30.2401 35.5702 30.26C30.5202 30.26 25.4802 30.26 20.4402 30.26C19.6402 30.26 19.4402 30.52 19.4402 31.26C19.4402 41.26 19.4402 51.26 19.4402 61.26C19.4402 62.09 19.7402 62.21 20.4402 62.21C24.1702 62.21 27.9002 62.21 31.6202 62.21C35.3402 62.21 38.9602 59.16 40.1402 55.5C40.2079 55.0568 40.3393 54.6257 40.5302 54.22C40.7702 53.86 41.2902 54.01 41.6802 54.05C42.3502 54.11 42.0802 54.67 42.0802 55.05C42.0802 60.1433 42.0802 65.2367 42.0802 70.33C42.0802 70.73 42.2902 71.33 41.5102 71.33C40.9402 71.33 40.5902 71.33 40.3802 70.55C39.9646 68.7813 39.0626 67.1641 37.7762 65.8812C36.4897 64.5982 34.87 63.7007 33.1002 63.29C32.2597 63.1067 31.4001 63.0261 30.5402 63.05C27.2702 63.05 24.0002 63.05 20.7302 63C19.5702 63 19.4002 63.43 19.4102 64.41C19.5702 67.77 19.5402 71.18 19.5402 74.94Z" fill="black"/>
<path d="M69.1198 41.51C69.1198 37.82 66.8998 35.51 62.5698 34.71C62.5383 34.6857 62.4996 34.6725 62.4597 34.6725C62.4199 34.6725 62.3813 34.6857 62.3498 34.71L62.2598 34.17H62.3598L62.5698 33.93C63.1198 33.87 63.5698 33.5 64.1998 33.63C64.3698 33.81 64.4298 33.72 64.4498 33.54C64.9898 33.15 65.7098 33.07 66.1598 32.54C67.0154 32.0352 67.7355 31.33 68.2581 30.4851C68.7807 29.6402 69.0901 28.681 69.1598 27.69C69.1598 27.32 69.0598 26.83 69.6998 26.78C70.3398 26.73 70.2097 27.2 70.2697 27.58C70.4558 29.0492 71.1029 30.4215 72.1182 31.4996C73.1334 32.5777 74.4644 33.3061 75.9198 33.58C76.1798 33.64 76.4298 33.76 76.6998 33.81C76.9698 33.86 77.2698 33.81 77.2998 34.18C77.3298 34.55 76.9698 34.6 76.6598 34.68C76.0598 34.83 75.4698 35.04 74.8798 35.23C73.7627 35.5432 72.759 36.1704 71.9879 37.0372C71.2168 37.9041 70.7107 38.974 70.5298 40.12C70.0098 40.58 70.3998 41.21 70.2298 41.73C69.8198 41.78 69.4098 41.91 69.1198 41.51ZM65.5598 34.85C65.7898 34.8 65.8198 34.63 65.7898 34.44C65.784 34.3265 65.7389 34.2186 65.6623 34.1347C65.5856 34.0507 65.4822 33.9961 65.3698 33.98C65.0598 33.98 65.0198 34.22 65.0898 34.45C65.1021 34.5658 65.1571 34.6729 65.2439 34.7505C65.3308 34.8281 65.4433 34.8706 65.5598 34.87V34.85Z" fill="black"/>
<path d="M33.8999 97.51C36.0099 97.25 37.8999 97.51 39.6799 97.14C43.7999 96.26 47.4599 94.71 49.4499 90.68C49.9399 89.68 50.6299 90.14 51.3999 90.06C50.9499 92.55 50.4999 94.93 50.0999 97.31C50.0299 97.73 49.9699 97.9701 49.4699 97.9701L34.4699 97.9101C34.4099 97.9401 34.2799 97.8 33.8999 97.51Z" fill="black"/>
<path d="M278.77 34.38C278.77 38.17 278.77 41.33 278.77 44.49C278.77 45.17 279.1 46.05 277.77 46.03C276.44 46.01 276.68 45.29 276.68 44.52C276.68 40.43 276.68 36.34 276.68 32.25C276.68 31.67 276.22 30.77 277.36 30.63C277.753 30.5137 278.173 30.5312 278.555 30.6796C278.937 30.828 279.259 31.099 279.47 31.45C281.63 34.74 283.89 37.96 286.11 41.21L287.03 42.56C287.03 38.74 287.03 35.56 287.03 32.34C287.03 31.62 286.6 30.59 288.03 30.56C289.46 30.53 289.11 31.47 289.11 32.24C289.11 36.24 289.11 40.24 289.11 44.3C289.11 44.88 289.58 45.81 288.48 45.97C288.011 46.1002 287.513 46.073 287.061 45.8923C286.61 45.7116 286.23 45.3876 285.98 44.97C283.98 41.9 281.92 38.9 279.88 35.87C279.68 35.57 279.41 35.25 278.77 34.38Z" fill="black"/>
<path d="M193.41 66.57V60.13C193.41 59.51 193.32 58.82 194.27 58.83C196.2 58.7531 198.133 58.7865 200.06 58.93C200.937 58.9821 201.774 59.3158 202.446 59.8816C203.118 60.4473 203.589 61.2148 203.79 62.07C204.24 64.17 203.79 66.21 201.79 67.3C200.45 68.03 200.79 68.6 201.44 69.44C202.23 70.44 203.07 71.5 203.77 72.6C204.05 73.06 205.33 73.53 204.29 74.14C203.899 74.3723 203.436 74.4508 202.99 74.3602C202.545 74.2696 202.149 74.0165 201.88 73.65C200.81 72.13 199.59 70.72 198.61 69.15C198.394 68.718 198.029 68.3788 197.582 68.195C197.136 68.0111 196.638 67.9952 196.18 68.15C195.03 68.41 195.63 69.39 195.57 70.05C195.495 71.082 195.495 72.1181 195.57 73.15C195.57 73.94 195.37 74.25 194.57 74.25C193.77 74.25 193.44 74.03 193.45 73.2C193.41 70.99 193.41 68.78 193.41 66.57ZM195.53 63.57C195.6 64.89 194.87 66.57 197.44 66.39C200.01 66.21 201.66 65.39 201.72 63.54C201.78 61.69 200.43 60.89 197.54 60.64C194.82 60.4 195.62 62.21 195.52 63.56L195.53 63.57Z" fill="black"/>
<path d="M64.6099 68C66.7586 68.0772 68.9086 67.8857 71.0099 67.43C74.7799 66.51 78.0999 64.89 79.8799 61.16C80.2499 60.4 80.8798 60.54 81.3398 60.64C81.7998 60.74 81.6899 61.41 81.6299 61.77C81.3199 63.77 80.9199 65.83 80.5699 67.85C80.4999 68.23 80.4398 68.55 79.9398 68.54H65.1299C64.8699 68.51 64.7099 68.37 64.6099 68Z" fill="black"/>
<path d="M180.41 45.79C178.6 46.31 177.59 45.79 176.8 44.49C176.01 43.19 175.15 42.28 174.39 41.12C174.14 40.7013 173.75 40.3845 173.289 40.2253C172.828 40.0661 172.325 40.0749 171.87 40.25C170.73 40.53 171.35 41.51 171.28 42.17C171.21 43.1387 171.21 44.1113 171.28 45.08C171.28 45.86 170.91 46 170.28 46C169.65 46 169.17 45.9 169.17 45.12C169.17 40.55 169.17 35.98 169.17 31.4C169.17 30.56 169.75 30.58 170.3 30.59C172.16 30.4884 174.026 30.5722 175.87 30.84C177.73 31.24 179.16 32.1 179.54 34.01C179.92 35.92 179.54 37.95 177.59 39.06C176.42 39.73 176.17 40.22 177.16 41.33C178.317 42.7613 179.402 44.2499 180.41 45.79V45.79ZM171.25 35.35C171.54 36.35 170.34 38.24 172.89 38.16C175.89 38.06 177.49 37.16 177.41 35.16C177.33 33.16 176.19 32.78 173.46 32.57C171.12 32.41 170.98 33.61 171.22 35.35H171.25Z" fill="black"/>
<path d="M111.47 38.18C111.47 36.1 111.47 34.02 111.47 31.95C111.47 30.87 111.79 30.5 112.9 30.54C115.18 30.62 117.46 30.54 119.74 30.54C120.61 30.54 121.22 30.64 121.18 31.75C121.14 32.86 120.44 32.75 119.74 32.75C118.57 32.75 117.39 32.7 116.22 32.75C115.45 32.75 114.27 32.31 114 33.19C113.764 34.3363 113.744 35.5163 113.94 36.67C113.99 37.33 114.67 37.15 115.12 37.17C116.43 37.17 117.74 37.17 119.05 37.17C119.57 37.17 120.27 36.95 120.28 37.82C120.29 38.69 119.98 39.16 119.06 39.15C117.82 39.15 116.57 39.15 115.33 39.15C114.33 39.15 113.87 39.39 113.81 40.53C113.63 44.18 113.58 44.17 117.22 44.13H120.33C120.9 44.13 121.24 44.35 121.27 44.97C121.3 45.59 121.05 46.03 120.34 46.03C117.71 46.03 115.09 46.03 112.46 46.03C111.38 46.03 111.46 45.31 111.46 44.61V38.18H111.47Z" fill="black"/>
<path d="M150.52 38.16C150.52 36.08 150.52 34 150.52 31.93C150.52 31.04 150.62 30.49 151.74 30.52C154.16 30.6 156.58 30.58 159 30.52C159.73 30.52 160.19 30.62 160.19 31.52C160.19 32.42 159.85 32.75 158.95 32.7C158.05 32.65 156.88 32.7 155.84 32.7C152.61 32.7 152.66 32.7 152.84 35.86C152.84 36.86 153.24 37.19 154.19 37.16C155.5 37.16 156.82 37.16 158.13 37.16C158.67 37.16 159.36 37.03 159.37 37.84C159.38 38.65 159.05 39.18 158.14 39.17C156.89 39.17 155.64 39.23 154.4 39.17C153.16 39.11 152.76 39.57 152.86 40.73C152.91 41.3524 152.91 41.9777 152.86 42.6C152.75 43.74 153.17 44.23 154.37 44.17C155.88 44.09 157.37 44.17 158.93 44.17C159.64 44.17 160.36 44.12 160.32 45.17C160.28 46.22 159.65 46.02 159.01 46.02C156.66 46.02 154.3 45.96 151.95 46.02C150.82 46.02 150.51 45.63 150.54 44.58C150.56 42.51 150.52 40.31 150.52 38.16Z" fill="black"/>
<path d="M218.95 38.13C218.95 36.05 218.95 33.97 218.95 31.9C218.95 30.9 219.21 30.53 220.22 30.55C222.64 30.55 225.06 30.61 227.48 30.55C228.27 30.55 228.58 30.73 228.6 31.55C228.62 32.37 228.32 32.77 227.41 32.72C225.89 32.65 224.41 32.72 222.84 32.67C220.71 32.6 221.6 34.2 221.5 35.16C221.4 36.12 221.1 37.35 222.88 37.16C224.04 37.05 225.23 37.16 226.4 37.16C227.13 37.16 227.81 37.07 227.78 38.16C227.75 39.25 227.08 39.16 226.35 39.16C225.79 39.16 225.24 39.16 224.69 39.16C221.46 39.16 220.69 40.16 221.46 43.36C221.67 44.27 222.26 44.15 222.86 44.15H227.63C228.3 44.15 228.88 44.2 228.9 45.15C228.92 46.1 228.26 46.06 227.63 46.06C225.21 46.06 222.78 46 220.37 46.06C219.25 46.06 218.93 45.67 218.95 44.61C218.99 42.42 218.95 40.28 218.95 38.13Z" fill="black"/>
<path d="M133.68 64.62C133.68 63.1 133.68 61.57 133.68 60.05C133.68 59.21 133.87 58.77 134.82 58.77C135.77 58.77 135.91 59.33 135.9 60.11C135.9 62.81 135.83 65.52 135.9 68.22C136 71.6 138.72 73.38 141.75 72.15C143.48 71.45 144.02 70.05 144.04 68.34C144.04 65.71 144.04 63.08 144.04 60.44C144.04 59.62 143.87 58.74 145.22 58.77C146.57 58.8 146.29 59.77 146.29 60.52C146.29 63.36 146.34 66.21 146.29 69.05C146.16 72.48 143.64 74.5 139.75 74.44C136.09 74.38 133.75 72.21 133.69 68.78C133.69 67.4 133.69 66.01 133.69 64.62H133.68Z" fill="black"/>
<path d="M160.03 74.41C158.343 74.5105 156.664 74.1142 155.2 73.27C154.77 72.99 154.07 72.77 154.71 72.06C155.08 71.66 155.26 70.96 156.16 71.51C157.397 72.2869 158.855 72.6381 160.31 72.51C161.56 72.37 162.78 72.09 163.07 70.51C163.36 68.93 162.45 68.24 161.2 67.73C159.79 67.16 158.37 66.61 156.99 65.99C156.32 65.6911 155.764 65.1846 155.404 64.5454C155.044 63.9061 154.899 63.168 154.99 62.44C154.995 61.7075 155.223 60.994 155.645 60.3952C156.067 59.7964 156.662 59.341 157.35 59.09C158.439 58.6554 159.609 58.4591 160.78 58.5143C161.951 58.5695 163.097 58.8749 164.14 59.41C164.64 59.64 165.41 59.83 164.94 60.76C164.47 61.69 164.14 61.76 163.33 61.22C162.183 60.5435 160.829 60.3055 159.52 60.55C158.59 60.67 157.52 60.85 157.35 62.07C157.27 62.5576 157.368 63.0578 157.627 63.4785C157.886 63.8993 158.289 64.2123 158.76 64.36C160.25 65.07 161.89 65.51 163.33 66.3C163.974 66.6106 164.526 67.0833 164.932 67.6717C165.338 68.2602 165.584 68.9441 165.645 69.6564C165.707 70.3686 165.582 71.0845 165.283 71.7339C164.984 72.3833 164.521 72.9437 163.94 73.36C162.66 74.38 161.2 74.29 160.03 74.41Z" fill="black"/>
<path d="M119.41 58.83C120.36 58.64 120.88 59 121.23 59.98C122.79 64.26 124.43 68.52 126.05 72.78C126.23 73.27 126.73 73.84 125.95 74.17C125.667 74.3037 125.351 74.3531 125.041 74.3123C124.731 74.2716 124.439 74.1423 124.2 73.94C124.019 73.7319 123.879 73.4909 123.79 73.23C123.2 72.1 123.37 70.23 122.1 69.87C120.407 69.5224 118.666 69.4852 116.96 69.76C115.35 69.92 115.71 71.65 115.16 72.66C114.73 73.42 114.7 74.42 113.42 74.3C112.66 74.23 112.24 74.14 112.59 73.2C114.303 68.7466 115.97 64.2866 117.59 59.82C117.636 59.6305 117.721 59.4528 117.84 59.2982C117.959 59.1436 118.109 59.0156 118.281 58.9224C118.452 58.8292 118.641 58.7728 118.836 58.7569C119.03 58.741 119.226 58.7659 119.41 58.83V58.83ZM119.57 61.6H119.09C118.463 63.34 117.836 65.0866 117.21 66.84C116.98 67.48 116.86 68.05 117.91 67.98C118.96 67.91 119.84 67.98 120.81 67.98C121.55 67.98 121.81 67.67 121.56 66.98L119.57 61.6Z" fill="black"/>
<path d="M257.97 38.17C257.97 36.1 257.97 34.02 257.97 31.94C257.97 31.06 258.06 30.53 259.16 30.56C261.58 30.62 264 30.56 266.42 30.56C267.13 30.56 267.61 30.62 267.6 31.56C267.59 32.5 267.35 32.8 266.41 32.75C264.82 32.68 263.23 32.75 261.64 32.75C260.64 32.75 260.17 32.89 260.15 34.09C260.08 37.22 260.01 37.22 263.15 37.24C263.91 37.24 264.68 37.24 265.43 37.24C265.98 37.24 266.79 36.97 266.73 38.04C266.67 38.92 266.18 39.22 265.35 39.2C264.18 39.2 263 39.25 261.83 39.2C260.66 39.15 260.16 39.55 260.16 40.85C260.16 44.23 260.08 44.23 263.36 44.23C264.47 44.23 265.57 44.28 266.68 44.23C267.45 44.23 267.61 44.55 267.68 45.23C267.75 45.91 267.35 46.14 266.68 46.13C264.2 46.13 261.714 46.13 259.22 46.13C258.32 46.13 258.02 45.81 258.04 44.92C258.01 42.6 257.97 40.39 257.97 38.17Z" fill="black"/>
<path d="M268.86 58.83C269.8 58.59 270.26 59.02 270.57 59.83C272.14 64.07 273.76 68.3 275.35 72.54C275.57 73.12 276.27 73.88 275.18 74.2C274.41 74.44 273.4 74.37 273.25 73.26C272.82 70.01 270.88 69.38 267.93 69.6C266.16 69.74 265.18 70.05 264.74 71.9C264.54 72.76 264.62 74.26 262.95 74.21C262.2 74.21 261.68 74.1 262.03 73.21C263.76 68.66 265.52 64.12 267.2 59.55C267.56 58.56 268.27 58.93 268.86 58.83ZM268.78 61.09C268.26 62.41 267.78 63.48 267.43 64.59C266.13 68.59 265.49 67.89 269.94 68C271.05 68 271.27 67.67 270.86 66.65C270.16 64.93 269.55 63.18 268.78 61.09Z" fill="black"/>
<path d="M224.3 74.21C222.9 74.54 222.87 73.33 222.48 72.5C222.09 71.67 222.19 69.98 220.99 69.81C219.137 69.5951 217.264 69.6254 215.42 69.9C214.72 69.99 214.73 71.17 214.42 71.84C214.11 72.51 214.02 73.17 213.7 73.78C213.28 74.58 212.44 74.33 211.85 74.18C210.92 73.93 211.62 73.23 211.76 72.85C213.3 68.65 214.94 64.49 216.47 60.29C216.81 59.29 217.17 58.8 218.32 58.79C218.753 58.7304 219.192 58.8378 219.549 59.0904C219.905 59.343 220.152 59.7219 220.24 60.15C221.78 64.42 223.4 68.66 225.02 72.9C225.33 73.67 225.8 74.41 224.3 74.21ZM218.3 60.96C217.45 63.31 216.83 65.15 216.12 66.96C215.75 67.96 216.29 68.09 216.97 67.96C218.22 67.78 219.6 68.56 220.71 67.47C220.71 67.47 220.62 67.23 220.57 67.1L218.3 60.96Z" fill="black"/>
<path d="M135.87 43.01L139.6 32.54C139.757 32.008 139.965 31.4923 140.22 31C140.68 30.23 141.5 30.5 142.08 30.68C142.66 30.86 142.31 31.52 142.16 31.92C140.57 36.27 138.92 40.59 137.36 44.92C136.99 45.92 136.3 45.97 135.41 46.01C135.042 46.0711 134.664 45.9846 134.359 45.7694C134.054 45.5542 133.846 45.2275 133.78 44.86C132.27 40.63 130.66 36.43 129.14 32.2C128.96 31.7 128.14 30.9 129.23 30.58C129.432 30.4846 129.652 30.4352 129.876 30.4354C130.099 30.4355 130.32 30.4852 130.522 30.5808C130.723 30.6765 130.901 30.8157 131.043 30.9885C131.184 31.1613 131.286 31.3633 131.34 31.58C132.28 34.47 133.34 37.32 134.34 40.18L135.34 42.86L135.87 43.01Z" fill="black"/>
<path d="M243.25 43.42C244.59 39.59 245.93 35.91 247.16 32.2C247.64 30.76 248.38 30.2 250.01 30.79L244.67 45.29C244.34 46.19 243.57 45.96 242.91 46C242.575 46.0791 242.222 46.0241 241.927 45.8466C241.631 45.6691 241.417 45.3832 241.33 45.05C239.8 40.78 238.16 36.54 236.6 32.27C236.41 31.73 235.73 30.93 236.81 30.62C237 30.5254 237.208 30.4747 237.42 30.4718C237.632 30.4689 237.842 30.5138 238.034 30.6031C238.226 30.6925 238.396 30.8241 238.53 30.988C238.664 31.1519 238.76 31.344 238.81 31.55C239.81 34.48 240.81 37.41 241.88 40.3C242.103 41.4277 242.571 42.4927 243.25 43.42V43.42Z" fill="black"/>
<path d="M177.65 67.51C177.57 65.9243 177.57 64.3356 177.65 62.75C177.82 61.09 177.14 60.69 175.65 60.87C174.894 60.91 174.136 60.91 173.38 60.87C172.75 60.87 172.56 60.53 172.54 59.96C172.52 59.39 172.65 58.86 173.4 58.86H184.4C185.13 58.86 185.13 59.33 185.11 59.86C185.09 60.39 185.24 60.86 184.49 60.93C184.22 60.93 183.94 60.93 183.66 60.93C180.1 61.02 180.1 61.02 180.1 64.56C180.1 67.18 180.1 69.81 180.1 72.43C180.1 73.3 180.54 74.43 178.83 74.37C177.12 74.31 177.69 73.16 177.66 72.37C177.61 70.66 177.65 69.07 177.65 67.51Z" fill="black"/>
<path d="M199.55 30.73C198.28 32.79 197.25 34.66 196.04 36.4C194.37 38.8 193.23 41.29 193.68 44.31C193.79 45.03 194.05 46.05 192.62 46.03C191.19 46.01 191.43 45.03 191.57 44.3C192.4 40.09 189.8 37.11 187.95 33.86C187.57 33.3575 187.235 32.822 186.95 32.26C186.77 31.74 185.72 31.21 186.51 30.74C186.691 30.6052 186.898 30.5108 187.118 30.4632C187.339 30.4157 187.567 30.4161 187.787 30.4645C188.007 30.5128 188.214 30.6081 188.394 30.7436C188.574 30.8792 188.723 31.0519 188.83 31.25C189.56 32.58 190.36 33.88 191.14 35.18C191.62 36 192.14 36.8 192.78 37.84C194.08 35.71 195.21 33.84 196.36 31.98C197.27 30.56 197.28 30.56 199.55 30.73Z" fill="black"/>
<path d="M303.75 30.59C305.41 30.59 307.07 30.59 308.75 30.59C309.6 30.59 310 30.77 309.99 31.72C309.98 32.67 309.47 32.64 308.8 32.72C304.96 32.98 304.96 33 304.96 36.81C304.96 39.43 304.96 42.06 304.96 44.69C304.96 45.63 304.77 46.06 303.72 46.05C302.67 46.04 302.72 45.47 302.72 44.71C302.72 41.32 302.65 37.93 302.72 34.55C302.72 33.12 302.37 32.55 300.89 32.69C300.08 32.79 299.23 32.69 298.41 32.69C297.59 32.69 297.41 32.27 297.41 31.55C297.41 30.83 297.6 30.55 298.41 30.55C300.16 30.62 301.96 30.59 303.75 30.59Z" fill="black"/>
<path d="M233.67 66.51C233.67 64.64 233.6 62.77 233.67 60.91C233.67 60.15 232.94 58.82 234.75 58.85C236.56 58.88 235.69 60.13 235.75 60.85C235.83 64.09 235.83 67.3366 235.75 70.59C235.75 71.81 236.01 72.34 237.35 72.23C238.92 72.11 240.52 72.23 242.1 72.23C243.1 72.18 243.3 72.53 243.28 73.41C243.26 74.29 242.89 74.41 242.13 74.41C239.71 74.35 237.3 74.34 234.88 74.41C233.82 74.41 233.63 73.97 233.65 73.04C233.7 70.77 233.67 68.63 233.67 66.51Z" fill="black"/>
<path d="M253.64 66.51C253.64 68.65 253.64 70.8 253.64 72.94C253.64 73.69 253.64 74.24 252.58 74.23C251.52 74.22 251.51 73.73 251.52 72.94C251.52 68.66 251.52 64.3767 251.52 60.09C251.52 59.29 251.61 58.82 252.6 58.78C253.59 58.74 253.6 59.37 253.6 60.09C253.6 62.23 253.6 64.37 253.6 66.51H253.64Z" fill="black"/>
<path d="M62.5698 35.51L62.6798 35.57L62.5698 35.5V35.51Z" fill="black"/>
<path d="M65.5602 34.87C65.4468 34.8712 65.3367 34.8315 65.2503 34.758C65.164 34.6844 65.1071 34.5822 65.0902 34.47C65.0202 34.24 65.0902 33.99 65.3702 34C65.4827 34.0161 65.5861 34.0708 65.6627 34.1547C65.7393 34.2386 65.7844 34.3465 65.7902 34.46C65.8202 34.65 65.7902 34.82 65.5602 34.87Z" fill="black"/>
<path d="M62.41 34.18C62.36 34 62.41 33.91 62.62 33.94L62.41 34.18Z" fill="black"/>
<path d="M64.2002 33.64C64.2235 33.6042 64.2543 33.574 64.2906 33.5515C64.327 33.5291 64.3678 33.5149 64.4102 33.51C64.4102 33.73 64.4102 33.82 64.2002 33.64Z" fill="black"/>
</g>
<defs>
<clipPath id="clip0_7_5776">
<rect width="309.95" height="98" fill="white"/>
</clipPath>
</defs>
</svg>
