<svg width="310" height="98" viewBox="0 0 310 98" fill="none" xmlns="http://www.w3.org/2000/svg">
<g clip-path="url(#clip0_7_5748)">
<path d="M19.5402 74.94C17.4502 72.7 15.9002 70.47 14.0502 68.48C11.8002 66.05 9.65018 63.48 7.28018 61.21C6.72911 60.7181 6.29561 60.1086 6.01175 59.4266C5.72788 58.7447 5.60092 58.0076 5.6402 57.27C5.7602 51.08 5.6402 44.9 5.6402 38.71C5.66238 37.3925 5.47675 36.0797 5.09018 34.82C4.843 33.891 4.30672 33.0647 3.55887 32.4607C2.81102 31.8566 1.89038 31.5062 0.930176 31.46C0.150176 31.39 -0.0198242 31.2 -0.0698242 30.46C-0.0698242 29.46 0.550182 29.75 1.03018 29.75C12.1202 29.75 23.2002 29.75 34.2902 29.75C35.6502 29.75 35.8902 29.35 35.8802 28.09C35.8102 21.18 35.8802 14.26 35.8002 7.34998C35.8002 3.97998 33.8002 1.79997 31.0402 1.92997C30.2102 1.97997 30.4002 1.37997 30.3702 0.929965C30.3402 0.479965 30.2802 -0.0700287 31.0102 0.0299713C31.2802 0.0299713 31.5502 0.0299713 31.8302 0.0299713C46.7702 0.0299713 61.7202 0.0299713 76.6602 0.0299713C78.0602 0.0299713 78.2702 0.569973 78.3502 1.74997C78.5002 3.74997 78.8402 5.74997 79.0802 7.74997C79.1302 8.18997 79.4402 8.83998 78.8102 9.00998C78.6578 9.07768 78.4924 9.11113 78.3257 9.10797C78.159 9.10482 77.995 9.06512 77.8453 8.9917C77.6956 8.91828 77.5638 8.81293 77.4593 8.68305C77.3547 8.55316 77.2799 8.40192 77.2402 8.23999C75.1502 3.11999 71.2402 0.579969 65.7202 0.589969H51.8202C49.9302 0.589969 49.9302 0.589976 49.9302 2.40998C49.9302 16.41 49.9302 30.3766 49.9302 44.31V45.09C48.8802 44.71 48.5602 43.78 48.0202 43.09C44.4802 38.83 40.6502 34.84 36.8802 30.78C36.716 30.5996 36.5123 30.4597 36.285 30.3713C36.0578 30.2828 35.8131 30.2481 35.5702 30.27C30.5202 30.27 25.4802 30.27 20.4402 30.27C19.6402 30.27 19.4402 30.53 19.4402 31.27C19.4402 41.27 19.4402 51.27 19.4402 61.27C19.4402 62.1 19.7402 62.22 20.4402 62.22C24.1702 62.22 27.9002 62.22 31.6202 62.22C35.3402 62.22 38.9602 59.17 40.1402 55.51C40.2079 55.0668 40.3393 54.6357 40.5302 54.23C40.7702 53.87 41.2902 54.03 41.6802 54.06C42.3502 54.12 42.0802 54.68 42.0802 55.06C42.0802 60.1466 42.0802 65.24 42.0802 70.34C42.0802 70.74 42.2902 71.34 41.5102 71.34C40.9402 71.34 40.5902 71.34 40.3802 70.56C39.9646 68.7913 39.0626 67.1741 37.7762 65.8912C36.4897 64.6082 34.87 63.7107 33.1002 63.3C32.2597 63.1167 31.4001 63.0361 30.5402 63.06C27.2702 63.06 24.0002 63.06 20.7302 63.06C19.5702 63.06 19.4002 63.48 19.4102 64.47C19.5702 67.77 19.5402 71.18 19.5402 74.94Z" fill="white"/>
<path d="M69.1198 41.53C69.1198 37.84 66.8998 35.53 62.5698 34.74C62.5443 34.7079 62.5086 34.6854 62.4686 34.6763C62.4286 34.6672 62.3866 34.672 62.3498 34.69L62.2598 34.15H62.3598L62.5698 33.91C63.1198 33.85 63.5698 33.48 64.1998 33.61C64.3698 33.79 64.4298 33.7 64.4498 33.52C64.9898 33.13 65.7098 33.05 66.1598 32.52C67.0154 32.0152 67.7355 31.31 68.2581 30.4651C68.7807 29.6203 69.0901 28.661 69.1598 27.67C69.1598 27.3 69.0598 26.81 69.6998 26.76C70.3398 26.71 70.2097 27.18 70.2697 27.57C70.4558 29.0392 71.1029 30.4115 72.1182 31.4896C73.1334 32.5678 74.4644 33.2961 75.9198 33.57C76.1798 33.63 76.4298 33.75 76.6998 33.8C76.9698 33.85 77.2698 33.8 77.2998 34.17C77.3298 34.54 76.9698 34.59 76.6598 34.67C76.0598 34.82 75.4698 35.03 74.8798 35.22C73.7613 35.5339 72.7566 36.1627 71.9854 37.0314C71.2142 37.9001 70.7089 38.9722 70.5298 40.12C70.0098 40.57 70.3998 41.2 70.2298 41.72C69.8198 41.78 69.4098 41.91 69.1198 41.53ZM65.5598 34.87C65.7898 34.82 65.8198 34.66 65.7898 34.47C65.7598 34.28 65.6098 34.02 65.3698 34.01C65.1298 34 65.0198 34.24 65.0898 34.47C65.1066 34.5822 65.1635 34.6845 65.2499 34.758C65.3363 34.8315 65.4463 34.8713 65.5598 34.87V34.87Z" fill="white"/>
<path d="M33.8999 97.54C36.0099 97.28 37.8999 97.5401 39.6799 97.1701C43.7999 96.2901 47.4599 94.7401 49.4499 90.7101C49.9399 89.7101 50.6299 90.17 51.3999 90.09C50.9499 92.58 50.4999 94.96 50.0999 97.34C50.0299 97.76 49.9699 98 49.4699 98C44.4699 98 39.4699 98 34.4699 97.94C34.4099 97.94 34.2799 97.8 33.8999 97.54Z" fill="white"/>
<path d="M278.77 34.3799C278.77 38.1699 278.77 41.33 278.77 44.49C278.77 45.17 279.1 46.0599 277.77 46.0299C276.44 45.9999 276.68 45.2899 276.68 44.5199C276.68 40.4299 276.68 36.3399 276.68 32.2499C276.68 31.6699 276.22 30.7699 277.36 30.6299C277.753 30.5189 278.172 30.5388 278.552 30.6868C278.933 30.8347 279.255 31.1026 279.47 31.4499C281.63 34.7399 283.89 37.9699 286.11 41.2199L287.03 42.5599C287.03 38.7399 287.03 35.5599 287.03 32.3399C287.03 31.6199 286.6 30.5899 288.03 30.5599C289.46 30.5299 289.11 31.4699 289.11 32.2399C289.11 36.2399 289.11 40.2399 289.11 44.2999C289.11 44.8799 289.58 45.8099 288.48 45.9699C288.012 46.1037 287.512 46.078 287.059 45.8971C286.607 45.7161 286.227 45.39 285.98 44.9699C283.98 41.8999 281.92 38.8999 279.88 35.8699C279.68 35.5699 279.41 35.2499 278.77 34.3799Z" fill="white"/>
<path d="M193.41 66.57V60.14C193.41 59.51 193.32 58.82 194.27 58.83C196.2 58.7514 198.134 58.7881 200.06 58.94C200.938 58.9873 201.777 59.3193 202.45 59.8858C203.123 60.4523 203.594 61.2225 203.79 62.08C204.24 64.17 203.79 66.21 201.79 67.3C200.45 68.03 200.79 68.6 201.44 69.44C202.23 70.44 203.07 71.5 203.77 72.6C204.05 73.06 205.33 73.53 204.29 74.15C203.897 74.379 203.434 74.4546 202.989 74.3623C202.544 74.27 202.149 74.0162 201.88 73.65C200.81 72.13 199.59 70.72 198.61 69.15C198.394 68.718 198.029 68.3787 197.582 68.1949C197.136 68.0111 196.638 67.9951 196.18 68.15C195.03 68.41 195.63 69.39 195.57 70.05C195.495 71.0853 195.495 72.1247 195.57 73.16C195.57 73.94 195.37 74.25 194.57 74.25C193.77 74.25 193.44 74.03 193.45 73.2C193.41 70.99 193.41 68.78 193.41 66.57ZM195.53 63.57C195.6 64.89 194.87 66.57 197.44 66.39C200.01 66.21 201.66 65.39 201.72 63.54C201.78 61.69 200.43 60.89 197.54 60.64C194.82 60.4 195.62 62.21 195.52 63.56L195.53 63.57Z" fill="white"/>
<path d="M64.6099 68C66.7587 68.0822 68.9093 67.8907 71.0099 67.43C74.7799 66.51 78.0999 64.89 79.8799 61.16C80.2499 60.4 80.8798 60.54 81.3398 60.64C81.7998 60.74 81.6899 61.41 81.6299 61.77C81.3199 63.77 80.9199 65.83 80.5699 67.86C80.4999 68.23 80.4398 68.55 79.9398 68.55C74.9998 68.55 70.0599 68.55 65.1299 68.55C64.8699 68.53 64.7099 68.37 64.6099 68Z" fill="white"/>
<path d="M180.41 45.79C178.6 46.31 177.59 45.79 176.8 44.49C176.11 43.31 175.15 42.28 174.39 41.12C174.137 40.7042 173.747 40.3898 173.287 40.231C172.827 40.0722 172.326 40.0789 171.87 40.25C170.73 40.54 171.35 41.51 171.28 42.17C171.21 43.1387 171.21 44.1113 171.28 45.08C171.28 45.86 170.91 46 170.28 46C169.65 46 169.17 45.9 169.17 45.13C169.17 40.55 169.17 35.98 169.17 31.41C169.17 30.56 169.75 30.58 170.3 30.59C172.16 30.4884 174.026 30.5722 175.87 30.84C177.73 31.24 179.16 32.1 179.54 34.01C179.92 35.92 179.54 37.95 177.59 39.07C176.42 39.73 176.17 40.22 177.16 41.33C178.27 42.65 179.21 44.18 180.41 45.79ZM171.22 35.32C171.51 36.37 170.31 38.21 172.86 38.13C175.86 38.03 177.46 37.13 177.38 35.13C177.3 33.13 176.16 32.74 173.43 32.53C171.12 32.41 170.98 33.61 171.22 35.32Z" fill="white"/>
<path d="M111.47 38.18C111.47 36.1 111.47 34.03 111.47 31.95C111.47 30.87 111.79 30.51 112.9 30.54C115.18 30.62 117.46 30.54 119.74 30.54C120.61 30.54 121.22 30.64 121.18 31.75C121.14 32.86 120.44 32.75 119.74 32.75C118.57 32.75 117.39 32.7 116.22 32.75C115.45 32.75 114.27 32.31 114 33.19C113.764 34.3397 113.744 35.523 113.94 36.68C113.99 37.33 114.67 37.15 115.12 37.17C116.43 37.17 117.74 37.17 119.05 37.17C119.57 37.17 120.27 36.95 120.28 37.82C120.29 38.69 119.98 39.16 119.06 39.15C117.82 39.15 116.57 39.15 115.33 39.15C114.33 39.15 113.87 39.39 113.81 40.53C113.63 44.18 113.58 44.17 117.22 44.13H120.33C120.9 44.13 121.24 44.35 121.27 44.97C121.3 45.59 121.05 46.03 120.34 46.03C117.71 46.03 115.09 46.03 112.46 46.03C111.38 46.03 111.46 45.3101 111.46 44.6101V38.18H111.47Z" fill="white"/>
<path d="M150.52 38.16C150.52 36.08 150.52 34.01 150.52 31.93C150.52 31.05 150.62 30.49 151.74 30.53C154.16 30.6 156.58 30.58 159 30.53C159.73 30.53 160.19 30.63 160.19 31.53C160.19 32.43 159.85 32.76 158.95 32.71C158.05 32.66 156.88 32.71 155.84 32.71C152.61 32.71 152.66 32.71 152.84 35.87C152.84 36.87 153.24 37.21 154.19 37.17C155.5 37.17 156.82 37.17 158.13 37.17C158.67 37.17 159.36 37.04 159.37 37.85C159.38 38.66 159.05 39.2 158.14 39.19C156.89 39.19 155.64 39.24 154.4 39.19C153.16 39.14 152.76 39.6 152.86 40.75C152.91 41.3723 152.91 41.9976 152.86 42.62C152.75 43.77 153.17 44.25 154.37 44.19C155.88 44.11 157.37 44.19 158.93 44.19C159.64 44.19 160.36 44.19 160.32 45.19C160.28 46.19 159.65 46.04 159.01 46.04C156.66 46.04 154.3 45.98 151.95 46.04C150.82 46.04 150.51 45.65 150.54 44.6C150.56 42.46 150.52 40.32 150.52 38.16Z" fill="white"/>
<path d="M218.95 38.13C218.95 36.05 218.95 33.97 218.95 31.9C218.95 30.9 219.21 30.53 220.22 30.56C222.64 30.6134 225.06 30.6134 227.48 30.56C228.27 30.56 228.58 30.74 228.6 31.56C228.62 32.38 228.32 32.78 227.41 32.73C225.89 32.66 224.41 32.73 222.84 32.68C220.71 32.61 221.6 34.21 221.5 35.17C221.4 36.13 221.1 37.36 222.88 37.17C224.04 37.06 225.23 37.17 226.4 37.17C227.13 37.17 227.81 37.08 227.78 38.17C227.75 39.26 227.08 39.17 226.35 39.17H224.69C221.46 39.17 220.69 40.17 221.46 43.37C221.67 44.29 222.26 44.16 222.86 44.17H227.63C228.3 44.17 228.88 44.22 228.9 45.17C228.92 46.12 228.26 46.08 227.63 46.08C225.21 46.08 222.78 46.02 220.37 46.08C219.25 46.08 218.93 45.69 218.95 44.63C218.99 42.43 218.95 40.32 218.95 38.13Z" fill="white"/>
<path d="M133.68 64.62C133.68 63.1 133.68 61.57 133.68 60.05C133.68 59.21 133.87 58.77 134.82 58.77C135.77 58.77 135.91 59.33 135.9 60.11C135.9 62.82 135.83 65.52 135.9 68.22C136 71.6 138.72 73.38 141.75 72.15C142.493 71.852 143.119 71.3197 143.532 70.6339C143.945 69.9482 144.124 69.1463 144.04 68.35C144.04 65.71 144.04 63.08 144.04 60.44C144.04 59.62 143.87 58.74 145.22 58.77C146.57 58.8 146.29 59.77 146.29 60.52C146.29 63.37 146.34 66.21 146.29 69.05C146.16 72.48 143.64 74.5 139.75 74.44C136.09 74.38 133.75 72.21 133.69 68.78C133.69 67.4 133.69 66.01 133.69 64.62H133.68Z" fill="white"/>
<path d="M160.03 74.41C158.343 74.5105 156.664 74.1141 155.2 73.27C154.77 72.99 154.07 72.7699 154.71 72.0599C155.08 71.6599 155.26 70.96 156.16 71.51C157.395 72.2917 158.854 72.6433 160.31 72.51C161.56 72.37 162.78 72.09 163.07 70.51C163.36 68.93 162.45 68.24 161.2 67.73C159.79 67.16 158.37 66.61 156.99 65.99C156.321 65.6929 155.765 65.1882 155.405 64.5506C155.045 63.9131 154.899 63.1766 154.99 62.45C154.994 61.7161 155.222 61.001 155.644 60.4005C156.066 59.8 156.661 59.3427 157.35 59.0899C158.439 58.6553 159.609 58.459 160.78 58.5142C161.951 58.5694 163.097 58.8748 164.14 59.41C164.64 59.64 165.41 59.84 164.94 60.76C164.47 61.68 164.14 61.7599 163.33 61.2199C162.183 60.5435 160.829 60.3055 159.52 60.55C158.59 60.67 157.52 60.85 157.35 62.07C157.27 62.5575 157.368 63.0577 157.627 63.4785C157.886 63.8992 158.289 64.2123 158.76 64.36C160.25 65.07 161.89 65.51 163.33 66.3C163.974 66.6105 164.526 67.0832 164.932 67.6717C165.338 68.2601 165.584 68.9441 165.645 69.6563C165.707 70.3685 165.582 71.0845 165.283 71.7338C164.984 72.3832 164.521 72.9436 163.94 73.36C162.66 74.38 161.2 74.32 160.03 74.41Z" fill="white"/>
<path d="M119.41 58.83C120.36 58.64 120.88 59 121.23 59.98C122.79 64.26 124.43 68.52 126.05 72.78C126.23 73.27 126.73 73.84 125.95 74.17C125.667 74.3026 125.353 74.3524 125.043 74.3134C124.733 74.2745 124.441 74.1485 124.2 73.95C124.023 73.7391 123.884 73.4988 123.79 73.24C123.2 72.1 123.37 70.24 122.1 69.88C120.409 69.523 118.666 69.4823 116.96 69.76C115.35 69.92 115.71 71.66 115.16 72.66C114.73 73.43 114.7 74.42 113.42 74.3C112.66 74.23 112.24 74.14 112.59 73.2C114.303 68.7533 115.97 64.2933 117.59 59.82C117.637 59.6313 117.724 59.4545 117.843 59.3008C117.962 59.147 118.112 59.0196 118.283 58.9266C118.454 58.8336 118.642 58.777 118.836 58.7604C119.03 58.7438 119.225 58.7675 119.41 58.83V58.83ZM119.57 61.6H119.09C118.463 63.34 117.836 65.0866 117.21 66.84C116.98 67.49 116.86 68.05 117.91 67.99C118.96 67.93 119.84 67.99 120.81 67.99C121.55 67.99 121.81 67.67 121.56 66.99C120.87 65.18 120.2 63.39 119.54 61.6H119.57Z" fill="white"/>
<path d="M257.97 38.1699C257.97 36.0999 257.97 34.0199 257.97 31.9399C257.97 31.0599 258.06 30.5299 259.16 30.5599C261.58 30.6299 264 30.5599 266.42 30.5599C267.13 30.5599 267.61 30.6199 267.6 31.5599C267.59 32.4999 267.35 32.7999 266.41 32.7499C264.82 32.6799 263.23 32.7499 261.64 32.7499C260.64 32.7499 260.17 32.8899 260.15 34.0899C260.08 37.2299 260.01 37.2199 263.15 37.2399C263.91 37.2399 264.68 37.2399 265.43 37.2399C265.98 37.2399 266.79 36.9699 266.73 38.0399C266.67 38.9099 266.18 39.2199 265.35 39.1999C264.18 39.1999 263 39.1999 261.83 39.1999C260.66 39.1999 260.16 39.5599 260.16 40.8599C260.16 44.2299 260.08 44.2299 263.36 44.2299C264.47 44.2299 265.57 44.2799 266.68 44.2299C267.45 44.2299 267.61 44.5499 267.68 45.2299C267.75 45.9099 267.35 46.1399 266.68 46.1299C264.2 46.1299 261.714 46.1299 259.22 46.1299C258.32 46.1299 258.02 45.7999 258.04 44.9099C258.01 42.6099 257.97 40.3899 257.97 38.1699Z" fill="white"/>
<path d="M268.86 58.83C269.8 58.59 270.26 59.02 270.57 59.83C272.14 64.07 273.76 68.3 275.35 72.54C275.57 73.12 276.27 73.88 275.18 74.2C274.41 74.44 273.4 74.37 273.25 73.26C272.82 70.01 270.88 69.38 267.93 69.61C266.16 69.74 265.18 70.05 264.74 71.91C264.54 72.76 264.62 74.27 262.95 74.21C262.2 74.21 261.68 74.1 262.03 73.21C263.76 68.66 265.52 64.12 267.2 59.55C267.56 58.56 268.27 58.93 268.86 58.83ZM268.78 61.09C268.26 62.42 267.78 63.49 267.43 64.59C266.13 68.59 265.49 67.89 269.94 68C271.05 68 271.27 67.67 270.86 66.66C270.16 64.94 269.55 63.18 268.78 61.09Z" fill="white"/>
<path d="M224.3 74.21C222.9 74.54 222.87 73.34 222.48 72.51C222.09 71.68 222.19 69.98 220.99 69.81C219.137 69.5951 217.264 69.6253 215.42 69.9C214.72 69.99 214.73 71.17 214.42 71.85C214.11 72.53 214.02 73.17 213.7 73.78C213.28 74.58 212.44 74.34 211.85 74.18C210.92 73.93 211.62 73.23 211.76 72.85C213.3 68.65 214.94 64.49 216.47 60.29C216.81 59.29 217.17 58.8 218.32 58.8C218.752 58.7351 219.193 58.8391 219.55 59.0905C219.908 59.3419 220.155 59.7213 220.24 60.15C221.78 64.42 223.4 68.66 225.02 72.9C225.33 73.67 225.8 74.41 224.3 74.21ZM218.3 60.96C217.45 63.31 216.83 65.15 216.12 66.96C215.75 67.96 216.29 68.09 216.97 67.96C218.22 67.77 219.6 68.55 220.71 67.46C220.71 67.46 220.62 67.22 220.57 67.1L218.3 60.96Z" fill="white"/>
<path d="M135.87 43.01L139.6 32.54C139.759 32.0087 139.966 31.4932 140.22 31C140.68 30.24 141.5 30.5 142.08 30.68C142.66 30.86 142.31 31.52 142.16 31.92C140.57 36.27 138.92 40.59 137.36 44.92C136.99 45.92 136.3 45.97 135.41 46.01C135.042 46.0711 134.664 45.9847 134.359 45.7695C134.054 45.5542 133.846 45.2275 133.78 44.86C132.27 40.63 130.66 36.4301 129.14 32.2101C128.96 31.7101 128.14 30.9 129.23 30.58C129.432 30.4847 129.652 30.4353 129.876 30.4354C130.099 30.4356 130.32 30.4853 130.522 30.5809C130.723 30.6766 130.901 30.8158 131.043 30.9886C131.184 31.1613 131.286 31.3633 131.34 31.58C132.28 34.47 133.34 37.32 134.34 40.18L135.34 42.86L135.87 43.01Z" fill="white"/>
<path d="M243.25 43.4201C244.59 39.5901 245.93 35.9201 247.16 32.2001C247.64 30.7701 248.38 30.2001 250.01 30.8001L244.67 45.3201C244.34 46.2201 243.57 45.99 242.91 46.03C242.575 46.1091 242.222 46.0541 241.927 45.8766C241.631 45.6991 241.417 45.4133 241.33 45.0801C239.8 40.8101 238.16 36.5701 236.6 32.3001C236.41 31.7601 235.73 30.96 236.81 30.65C237 30.5554 237.208 30.5048 237.42 30.5018C237.632 30.4989 237.842 30.5438 238.034 30.6332C238.226 30.7225 238.396 30.8541 238.53 31.018C238.664 31.182 238.76 31.3741 238.81 31.5801C239.79 34.5201 240.813 37.44 241.88 40.34C242.107 41.4541 242.575 42.5052 243.25 43.4201Z" fill="white"/>
<path d="M177.65 67.4799C177.57 65.8943 177.57 64.3056 177.65 62.7199C177.82 61.0599 177.14 60.6599 175.65 60.8399C174.894 60.8799 174.136 60.8799 173.38 60.8399C172.75 60.8399 172.56 60.5099 172.54 59.9299C172.52 59.3499 172.65 58.83 173.4 58.83C177.06 58.83 180.71 58.83 184.4 58.83C185.13 58.83 185.13 59.3 185.11 59.83C185.09 60.36 185.24 60.8299 184.49 60.8999C184.22 60.8999 183.94 60.8999 183.66 60.8999C180.1 60.9899 180.1 60.99 180.1 64.52C180.1 67.14 180.1 69.77 180.1 72.39C180.1 73.26 180.54 74.39 178.83 74.33C177.12 74.27 177.69 73.12 177.66 72.33C177.61 70.66 177.65 69.0699 177.65 67.4799Z" fill="white"/>
<path d="M199.55 30.74C198.28 32.79 197.25 34.66 196.04 36.41C194.37 38.8 193.23 41.29 193.68 44.31C193.79 45.03 194.05 46.05 192.62 46.03C191.19 46.01 191.43 45.03 191.57 44.3C192.4 40.09 189.8 37.11 187.95 33.86C187.57 33.3575 187.235 32.822 186.95 32.26C186.77 31.75 185.72 31.21 186.51 30.74C186.691 30.6052 186.898 30.5108 187.118 30.4632C187.339 30.4157 187.567 30.4161 187.787 30.4645C188.007 30.5128 188.214 30.6081 188.394 30.7436C188.574 30.8792 188.723 31.0519 188.83 31.25C189.56 32.58 190.36 33.88 191.14 35.19C191.62 36 192.14 36.8 192.78 37.84C194.08 35.71 195.21 33.84 196.36 31.98C197.27 30.56 197.28 30.56 199.55 30.74Z" fill="white"/>
<path d="M303.75 30.59C305.41 30.59 307.07 30.59 308.75 30.59C309.6 30.59 310 30.77 309.99 31.72C309.98 32.67 309.47 32.65 308.8 32.72C304.96 32.99 304.96 33 304.96 36.81C304.96 39.43 304.96 42.06 304.96 44.69C304.96 45.63 304.77 46.06 303.72 46.05C302.67 46.04 302.72 45.4701 302.72 44.7101C302.72 41.3201 302.65 37.93 302.72 34.55C302.72 33.12 302.37 32.55 300.89 32.69C300.08 32.79 299.23 32.69 298.41 32.69C297.59 32.69 297.41 32.26 297.41 31.54C297.41 30.82 297.6 30.54 298.41 30.54C300.16 30.62 301.96 30.59 303.75 30.59Z" fill="white"/>
<path d="M233.67 66.4901C233.67 64.6201 233.6 62.7501 233.67 60.8901C233.67 60.1301 232.94 58.8101 234.75 58.8301C236.56 58.8501 235.69 60.1101 235.75 60.8301C235.83 64.0701 235.83 67.3167 235.75 70.57C235.75 71.8 236.01 72.3201 237.35 72.2101C238.92 72.0901 240.52 72.2101 242.1 72.2101C243.1 72.1601 243.3 72.5101 243.28 73.3901C243.26 74.2701 242.89 74.3901 242.13 74.3901C239.71 74.3301 237.3 74.3201 234.88 74.3901C233.82 74.3901 233.63 73.95 233.65 73.03C233.7 70.77 233.67 68.6301 233.67 66.4901Z" fill="white"/>
<path d="M253.64 66.53C253.64 68.68 253.64 70.82 253.64 72.96C253.64 73.72 253.64 74.27 252.58 74.25C251.52 74.23 251.51 73.75 251.52 72.96C251.52 68.68 251.52 64.3967 251.52 60.11C251.52 59.32 251.61 58.84 252.6 58.8C253.59 58.76 253.6 59.39 253.6 60.11C253.6 62.25 253.6 64.39 253.6 66.53H253.64Z" fill="white"/>
<path d="M62.5698 35.53L62.6798 35.59L62.5698 35.53Z" fill="white"/>
<path d="M65.5602 34.87C65.4468 34.8713 65.3367 34.8315 65.2503 34.758C65.164 34.6845 65.1071 34.5822 65.0902 34.47C65.0202 34.24 65.0902 33.99 65.3702 34.01C65.6502 34.03 65.7502 34.22 65.7902 34.47C65.8302 34.72 65.7902 34.82 65.5602 34.87Z" fill="white"/>
<path d="M62.41 34.18C62.36 34 62.41 33.91 62.62 33.94L62.41 34.18Z" fill="white"/>
<path d="M64.2002 33.6399C64.2317 33.6061 64.2708 33.5803 64.3143 33.5646C64.3578 33.549 64.4044 33.5439 64.4502 33.5499C64.4102 33.7299 64.4102 33.8199 64.2002 33.6399Z" fill="white"/>
</g>
<defs>
<clipPath id="clip0_7_5748">
<rect width="309.95" height="98" fill="white"/>
</clipPath>
</defs>
</svg>
